<mxfile host="app.diagrams.net" agent="Mozilla/5.0 (Macintosh; Intel Mac OS X 10_15_7) AppleWebKit/537.36 (KHTML, like Gecko) Chrome/130.0.0.0 Safari/537.36" version="27.1.6">
  <diagram name="Page-1" id="Vbr0CijxR21njQ9QUA5J">
    <mxGraphModel dx="1678" dy="941" grid="1" gridSize="10" guides="1" tooltips="1" connect="1" arrows="1" fold="1" page="1" pageScale="1" pageWidth="850" pageHeight="1100" math="0" shadow="0">
      <root>
        <mxCell id="0" />
        <mxCell id="1" parent="0" />
        <mxCell id="UKZgeWSrZiBoHaI9SNrV-212" value="watsonx Orchestrate" style="shape=mxgraph.ibm.box;prType=cloud;fontStyle=0;verticalAlign=top;align=left;spacingLeft=32;spacingTop=4;fillColor=none;rounded=0;whiteSpace=wrap;html=1;strokeColor=#4376BB;strokeWidth=3;dashed=0;container=1;spacing=-4;collapsible=0;expand=0;recursiveResize=0;" vertex="1" parent="1">
          <mxGeometry x="410" y="320" width="730" height="490" as="geometry" />
        </mxCell>
        <mxCell id="UKZgeWSrZiBoHaI9SNrV-213" value="" style="whiteSpace=wrap;html=1;aspect=fixed;fillColor=light-dark(#4376bb, #1d293b);strokeColor=none;" vertex="1" parent="UKZgeWSrZiBoHaI9SNrV-212">
          <mxGeometry width="25" height="25" as="geometry" />
        </mxCell>
        <mxCell id="UKZgeWSrZiBoHaI9SNrV-214" value="" style="shape=image;verticalLabelPosition=bottom;labelBackgroundColor=default;verticalAlign=top;aspect=fixed;imageAspect=0;editableCssRules=.*;image=data:image/svg+xml,PHN2ZyB4bWxuczp4bGluaz0iaHR0cDovL3d3dy53My5vcmcvMTk5OS94bGluayIgeG1sbnM9Imh0dHA6Ly93d3cudzMub3JnLzIwMDAvc3ZnIiB2aWV3Qm94PSIwIDAgMzIgMzIiIGlkPSJ3YXRzb254T3JjaGVzdHJhdGUiIHdpZHRoPSIzMiIgaGVpZ2h0PSIzMiI+PGRlZnM+PGxpbmVhckdyYWRpZW50IGdyYWRpZW50VW5pdHM9InVzZXJTcGFjZU9uVXNlIiBncmFkaWVudFRyYW5zZm9ybT0ibWF0cml4KDEgMCAwIC0xIDEyNTkuNDU5IC01NjEzLjM1NSkiIHkyPSItNTYzMC4zNTUiIHgyPSItMTI1NS45NTkiIHkxPSItNTYzOC4zNTUiIHgxPSItMTI1NS45NTkiIGlkPSI5MXZzNDV6dWJhIj48c3RvcCBzdG9wLW9wYWNpdHk9IjAiIG9mZnNldD0iMCIvPjxzdG9wIG9mZnNldD0iLjgzIi8+PC9saW5lYXJHcmFkaWVudD48bGluZWFyR3JhZGllbnQgZ3JhZGllbnRVbml0cz0idXNlclNwYWNlT25Vc2UiIGdyYWRpZW50VHJhbnNmb3JtPSJtYXRyaXgoMSAwIDAgLTEgMTI1NS41NDEgLTU2MjkuMjUxKSIgeTI9Ii01NjQ2LjM5IiB4Mj0iLTEyMzkuOTE1IiB5MT0iLTU2NTIuMDE1IiB4MT0iLTEyMzYuNjY3IiBpZD0icThqZHU2aGY1YiI+PHN0b3Agc3RvcC1vcGFjaXR5PSIwIiBvZmZzZXQ9IjAiLz48c3RvcCBvZmZzZXQ9Ii43Ii8+PC9saW5lYXJHcmFkaWVudD48bGluZWFyR3JhZGllbnQgeGxpbms6aHJlZj0iIzkxdnM0NXp1YmEiIGdyYWRpZW50VHJhbnNmb3JtPSJtYXRyaXgoMSAwIDAgLTEgMTg0Ni40NTkgLTE1MDkuMzU1KSIgeTI9Ii0xNTE2LjM1NSIgeDI9Ii0xODE3Ljk1OSIgeTE9Ii0xNTI0LjM1NSIgeDE9Ii0xODE3Ljk1OSIgaWQ9IjFhaTY2MWp4emMiLz48bGluZWFyR3JhZGllbnQgeGxpbms6aHJlZj0iI3E4amR1NmhmNWIiIGdyYWRpZW50VHJhbnNmb3JtPSJtYXRyaXgoLTEgMCAwIDEgLTE3ODUuNTQxIDE1NDcuMjUxKSIgeTI9Ii0xNTMyLjM5IiB4Mj0iLTE4MDEuOTE1IiB5MT0iLTE1MzguMDE1IiB4MT0iLTE3OTguNjY3IiBpZD0iaG85dm1kOXZvZCIvPjxsaW5lYXJHcmFkaWVudCBncmFkaWVudFVuaXRzPSJ1c2VyU3BhY2VPblVzZSIgeTI9IjAiIHgyPSIzMiIgeTE9IjMyIiB4MT0iMCIgaWQ9Ijd3dGZjZHpqaWYiPjxzdG9wIHN0b3AtY29sb3I9IiNhNTZlZmYiIG9mZnNldD0iLjEiLz48c3RvcCBzdG9wLWNvbG9yPSIjMGY2MmZlIiBvZmZzZXQ9Ii45Ii8+PC9saW5lYXJHcmFkaWVudD48bWFzayBtYXNrVW5pdHM9InVzZXJTcGFjZU9uVXNlIiBoZWlnaHQ9IjMyIiB3aWR0aD0iMzIiIHk9IjAiIHg9IjAiIGlkPSJibGYwZHBic25lIj48cGF0aCBzdHlsZT0iZmlsbDojZmZmO3N0cm9rZS13aWR0aDowIiBkPSJNMzAuODUxIDE0SDI4LjgzQzI3Ljg2MyA3Ljc4IDIyLjQ4NyAzIDE2IDMgMTEuMzggMyA3LjMyNiA1LjQyOSA1LjAyIDkuMDdBNy45MzkgNy45MzkgMCAwIDEgOSA4YzMuNzE5IDAgNi44NDUgMi41NTUgNy43MzcgNkgxNC42NWMtLjgyNi0yLjMyNy0zLjA0My00LTUuNjUtNGE1Ljk1OCA1Ljk1OCAwIDAgMC00Ljc4IDIuNDA3bC0yLjUyNS0uODQyQzMuNTkxIDUuNDU2IDkuMjc1IDEgMTYgMWM3LjU5MSAwIDEzLjg2OCA1LjY3NCAxNC44NTEgMTN6bS0zLjA3MSA1LjU5M0E1Ljk1NyA1Ljk1NyAwIDAgMSAyMyAyMmMtMi42MDcgMC00LjgyNC0xLjY3My01LjY1LTRoLTIuMDg3Yy44OTIgMy40NDUgNC4wMTcgNiA3LjczNyA2YTcuOTQxIDcuOTQxIDAgMCAwIDMuOTgtMS4wN0MyNC42NzQgMjYuNTcxIDIwLjYyIDI5IDE2IDI5IDkuNTEzIDI5IDQuMTM3IDI0LjIyIDMuMTcgMThIMS4xNDlDMi4xMzIgMjUuMzI2IDguNDA4IDMxIDE2IDMxYzYuNzI1IDAgMTIuNDA5LTQuNDU2IDE0LjMwNS0xMC41NjVsLTIuNTI1LS44NDJ6Ii8+PHBhdGggZD0iTTAgMTdoN3Y4SDB6IiBzdHlsZT0iZmlsbDp1cmwoIzkxdnM0NXp1YmEpO3N0cm9rZS13aWR0aDowIi8+PHBhdGggZD0iTTIxIDE3LjVoLTZWMjVsNi0zLjV2LTR6IiBzdHlsZT0iZmlsbDp1cmwoI3E4amR1NmhmNWIpO3N0cm9rZS13aWR0aDowIi8+PHBhdGggZD0iTTI1IDdoN3Y4aC03eiIgc3R5bGU9ImZpbGw6dXJsKCMxYWk2NjFqeHpjKTtzdHJva2Utd2lkdGg6MCIgdHJhbnNmb3JtPSJyb3RhdGUoLTE4MCAyOC41IDExKSIvPjxwYXRoIGQ9Ik0xMSAxNC41aDZWN2wtNiAzLjV2NHoiIHN0eWxlPSJmaWxsOnVybCgjaG85dm1kOXZvZCk7c3Ryb2tlLXdpZHRoOjAiLz48L21hc2s+PC9kZWZzPjxnIHN0eWxlPSJtYXNrOnVybCgjYmxmMGRwYnNuZSkiPjxwYXRoIGQ9Ik0wIDBoMzJ2MzJIMHoiIHN0eWxlPSJmaWxsOnVybCgjN3d0ZmNkemppZik7c3Ryb2tlLXdpZHRoOjAiLz48L2c+PGNpcmNsZSBzdHlsZT0iZmlsbDojMDAxZDZjO3N0cm9rZS13aWR0aDowIiByPSIyIiBjeT0iMTYiIGN4PSIzMCIvPjxjaXJjbGUgc3R5bGU9ImZpbGw6IzAwMWQ2YztzdHJva2Utd2lkdGg6MCIgcj0iMiIgY3k9IjE2IiBjeD0iMiIvPjxjaXJjbGUgc3R5bGU9ImZpbGw6IzAwMWQ2YztzdHJva2Utd2lkdGg6MCIgcj0iMiIgY3k9IjE2IiBjeD0iMTYiLz48L3N2Zz4=;imageBackground=default;imageBorder=light-dark(#ffffff, #ededed);" vertex="1" parent="UKZgeWSrZiBoHaI9SNrV-212">
          <mxGeometry x="2.5" y="2.5" width="20" height="20" as="geometry" />
        </mxCell>
        <mxCell id="UKZgeWSrZiBoHaI9SNrV-215" value="&lt;b&gt;Vehicle Maintenance Agent&lt;/b&gt;" style="rounded=0;whiteSpace=wrap;html=1;verticalAlign=top;fillColor=#dae8fc;strokeColor=#6c8ebf;" vertex="1" parent="UKZgeWSrZiBoHaI9SNrV-212">
          <mxGeometry x="22.5" y="45.5" width="327.5" height="414.5" as="geometry" />
        </mxCell>
        <mxCell id="UKZgeWSrZiBoHaI9SNrV-216" value="Profile" style="whiteSpace=wrap;html=1;verticalAlign=middle;fillColor=#dae8fc;strokeColor=#6c8ebf;rounded=0;gradientColor=#7ea6e0;align=center;" vertex="1" parent="UKZgeWSrZiBoHaI9SNrV-212">
          <mxGeometry x="40" y="80" width="290" height="60" as="geometry" />
        </mxCell>
        <mxCell id="UKZgeWSrZiBoHaI9SNrV-217" value="Knowledge" style="whiteSpace=wrap;html=1;verticalAlign=middle;fillColor=#dae8fc;strokeColor=#6c8ebf;rounded=0;gradientColor=#7ea6e0;" vertex="1" parent="UKZgeWSrZiBoHaI9SNrV-212">
          <mxGeometry x="40" y="160" width="290" height="60" as="geometry" />
        </mxCell>
        <mxCell id="UKZgeWSrZiBoHaI9SNrV-218" value="Toolset" style="whiteSpace=wrap;html=1;verticalAlign=top;fillColor=#dae8fc;strokeColor=#6c8ebf;rounded=0;gradientColor=#7ea6e0;" vertex="1" parent="UKZgeWSrZiBoHaI9SNrV-212">
          <mxGeometry x="40" y="240" width="290" height="110" as="geometry" />
        </mxCell>
        <mxCell id="UKZgeWSrZiBoHaI9SNrV-219" value="Behavior" style="whiteSpace=wrap;html=1;verticalAlign=middle;fillColor=#dae8fc;strokeColor=#6c8ebf;rounded=0;gradientColor=#7ea6e0;" vertex="1" parent="UKZgeWSrZiBoHaI9SNrV-212">
          <mxGeometry x="40" y="370" width="290" height="60" as="geometry" />
        </mxCell>
        <mxCell id="UKZgeWSrZiBoHaI9SNrV-220" value="Tools" style="rounded=0;whiteSpace=wrap;html=1;fillColor=#f5f5f5;gradientColor=#b3b3b3;strokeColor=#666666;" vertex="1" parent="UKZgeWSrZiBoHaI9SNrV-212">
          <mxGeometry x="60" y="270" width="120" height="60" as="geometry" />
        </mxCell>
        <mxCell id="UKZgeWSrZiBoHaI9SNrV-221" style="edgeStyle=orthogonalEdgeStyle;rounded=0;orthogonalLoop=1;jettySize=auto;html=1;exitX=1;exitY=0.5;exitDx=0;exitDy=0;startArrow=classic;startFill=1;" edge="1" parent="UKZgeWSrZiBoHaI9SNrV-212" source="UKZgeWSrZiBoHaI9SNrV-222" target="UKZgeWSrZiBoHaI9SNrV-223">
          <mxGeometry relative="1" as="geometry" />
        </mxCell>
        <mxCell id="UKZgeWSrZiBoHaI9SNrV-222" value="Agents" style="rounded=0;whiteSpace=wrap;html=1;fillColor=#f5f5f5;gradientColor=#b3b3b3;strokeColor=#666666;" vertex="1" parent="UKZgeWSrZiBoHaI9SNrV-212">
          <mxGeometry x="190" y="270" width="120" height="60" as="geometry" />
        </mxCell>
        <mxCell id="UKZgeWSrZiBoHaI9SNrV-223" value="&lt;b&gt;Vehicle Telematics Data analyzer Agent&lt;/b&gt;" style="rounded=0;whiteSpace=wrap;html=1;verticalAlign=top;fillColor=#dae8fc;strokeColor=#6c8ebf;" vertex="1" parent="UKZgeWSrZiBoHaI9SNrV-212">
          <mxGeometry x="370" y="45.5" width="327.5" height="414.5" as="geometry" />
        </mxCell>
        <mxCell id="UKZgeWSrZiBoHaI9SNrV-224" value="Profile" style="whiteSpace=wrap;html=1;verticalAlign=middle;fillColor=#dae8fc;strokeColor=#6c8ebf;rounded=0;gradientColor=#7ea6e0;align=center;" vertex="1" parent="UKZgeWSrZiBoHaI9SNrV-212">
          <mxGeometry x="388.75" y="80" width="290" height="60" as="geometry" />
        </mxCell>
        <mxCell id="UKZgeWSrZiBoHaI9SNrV-225" value="Toolset" style="whiteSpace=wrap;html=1;verticalAlign=top;fillColor=#dae8fc;strokeColor=#6c8ebf;rounded=0;gradientColor=#7ea6e0;" vertex="1" parent="UKZgeWSrZiBoHaI9SNrV-212">
          <mxGeometry x="388.75" y="240" width="290" height="110" as="geometry" />
        </mxCell>
        <mxCell id="UKZgeWSrZiBoHaI9SNrV-226" value="Behavior" style="whiteSpace=wrap;html=1;verticalAlign=middle;fillColor=#dae8fc;strokeColor=#6c8ebf;rounded=0;gradientColor=#7ea6e0;" vertex="1" parent="UKZgeWSrZiBoHaI9SNrV-212">
          <mxGeometry x="388.75" y="370" width="290" height="60" as="geometry" />
        </mxCell>
        <mxCell id="UKZgeWSrZiBoHaI9SNrV-227" value="Agents" style="rounded=0;whiteSpace=wrap;html=1;fillColor=#f5f5f5;gradientColor=#b3b3b3;strokeColor=#666666;" vertex="1" parent="UKZgeWSrZiBoHaI9SNrV-212">
          <mxGeometry x="408.75" y="270" width="120" height="60" as="geometry" />
        </mxCell>
        <mxCell id="UKZgeWSrZiBoHaI9SNrV-228" value="Tools" style="rounded=0;whiteSpace=wrap;html=1;fillColor=#f5f5f5;gradientColor=#b3b3b3;strokeColor=#666666;" vertex="1" parent="UKZgeWSrZiBoHaI9SNrV-212">
          <mxGeometry x="538.75" y="270" width="120" height="60" as="geometry" />
        </mxCell>
        <mxCell id="UKZgeWSrZiBoHaI9SNrV-229" value="Knowledge" style="whiteSpace=wrap;html=1;verticalAlign=middle;fillColor=#dae8fc;strokeColor=#6c8ebf;rounded=0;gradientColor=#7ea6e0;" vertex="1" parent="UKZgeWSrZiBoHaI9SNrV-212">
          <mxGeometry x="388.75" y="160" width="290" height="60" as="geometry" />
        </mxCell>
        <mxCell id="UKZgeWSrZiBoHaI9SNrV-230" value="" style="endArrow=none;html=1;rounded=0;" edge="1" parent="1">
          <mxGeometry width="50" height="50" relative="1" as="geometry">
            <mxPoint x="380" y="880" as="sourcePoint" />
            <mxPoint x="380" y="240" as="targetPoint" />
          </mxGeometry>
        </mxCell>
        <mxCell id="UKZgeWSrZiBoHaI9SNrV-231" value="" style="endArrow=none;html=1;rounded=0;" edge="1" parent="1">
          <mxGeometry width="50" height="50" relative="1" as="geometry">
            <mxPoint x="1420" y="870" as="sourcePoint" />
            <mxPoint x="1420" y="240" as="targetPoint" />
          </mxGeometry>
        </mxCell>
        <mxCell id="UKZgeWSrZiBoHaI9SNrV-232" value="watsonx.Data" style="shape=mxgraph.ibm.box;prType=cloud;fontStyle=0;verticalAlign=top;align=left;spacingLeft=32;spacingTop=4;fillColor=none;rounded=0;whiteSpace=wrap;html=1;strokeColor=#4376BB;strokeWidth=3;dashed=0;container=1;spacing=-4;collapsible=0;expand=0;recursiveResize=0;" vertex="1" parent="1">
          <mxGeometry x="1180" y="320" width="200" height="280" as="geometry" />
        </mxCell>
        <mxCell id="UKZgeWSrZiBoHaI9SNrV-233" value="&lt;b&gt;Vectorstores&lt;/b&gt;" style="rounded=0;whiteSpace=wrap;html=1;verticalAlign=top;fillColor=#fff2cc;strokeColor=#d6b656;" vertex="1" parent="UKZgeWSrZiBoHaI9SNrV-232">
          <mxGeometry x="15" y="37.75" width="170" height="212.25" as="geometry" />
        </mxCell>
        <mxCell id="UKZgeWSrZiBoHaI9SNrV-234" value="" style="shape=image;verticalLabelPosition=bottom;labelBackgroundColor=default;verticalAlign=top;aspect=fixed;imageAspect=0;editableCssRules=.*;image=data:image/svg+xml,PHN2ZyB4bWxuczp4bGluaz0iaHR0cDovL3d3dy53My5vcmcvMTk5OS94bGluayIgeG1sbnM9Imh0dHA6Ly93d3cudzMub3JnLzIwMDAvc3ZnIiB2aWV3Qm94PSIwIDAgMzIgMzIiIGlkPSJ3YXRzb254ZGF0YSIgd2lkdGg9IjMyIiBoZWlnaHQ9IjMyIj48ZGVmcz48bGluZWFyR3JhZGllbnQgZ3JhZGllbnRVbml0cz0idXNlclNwYWNlT25Vc2UiIGdyYWRpZW50VHJhbnNmb3JtPSJtYXRyaXgoLjgzMTIgLjU1NTk2IC0uMjc0MDkgLjQwOTc5IC0xOTguODk0IC0xODI3LjM5OCkiIHkyPSIyODQ1LjEwOSIgeDI9IjExOTkuODI1IiB5MT0iMjg2My4xNjkiIHgxPSIxMTg2LjUyNiIgaWQ9IjNkY203ODE1NmEiPjxzdG9wIG9mZnNldD0iLjMiLz48c3RvcCBzdG9wLW9wYWNpdHk9IjAiIG9mZnNldD0iMSIvPjwvbGluZWFyR3JhZGllbnQ+PGxpbmVhckdyYWRpZW50IHhsaW5rOmhyZWY9IiMzZGNtNzgxNTZhIiBncmFkaWVudFRyYW5zZm9ybT0icm90YXRlKC0xNDYuMjIzIDE5NS40MSAtNTgzLjI4NSkgc2NhbGUoMSAuNDkzKSIgeTI9Ii0yNDIxLjEwOCIgeDI9IjcuNzI4IiB5MT0iLTI0MDMuMDQ5IiB4MT0iLTUuNTcyIiBpZD0iYWN3MjkxMnhwYyIvPjxsaW5lYXJHcmFkaWVudCBncmFkaWVudFVuaXRzPSJ1c2VyU3BhY2VPblVzZSIgeTI9IjEyIiB4Mj0iMTAiIHkxPSIxNiIgeDE9IjEwIiBpZD0ib3NoOHMxcDc3YiI+PHN0b3Agc3RvcC1vcGFjaXR5PSIwIiBvZmZzZXQ9IjAiLz48c3RvcCBvZmZzZXQ9Ii43Ii8+PC9saW5lYXJHcmFkaWVudD48bGluZWFyR3JhZGllbnQgeGxpbms6aHJlZj0iI29zaDhzMXA3N2IiIGdyYWRpZW50VHJhbnNmb3JtPSJtYXRyaXgoMSAwIDAgLTEgMCAtMjg0OC4yNDkpIiB5Mj0iLTI4NjguMjQ5IiB4Mj0iMjIiIHkxPSItMjg2NC4yNDkiIHgxPSIyMiIgaWQ9Im16ZTgzaW1xeWQiLz48bGluZWFyR3JhZGllbnQgZ3JhZGllbnRVbml0cz0idXNlclNwYWNlT25Vc2UiIHkyPSIwIiB4Mj0iMzIiIHkxPSIzMiIgeDE9IjAiIGlkPSI4cW9rcWVpdWZmIj48c3RvcCBzdG9wLWNvbG9yPSIjYTU2ZWZmIiBvZmZzZXQ9Ii4xIi8+PHN0b3Agc3RvcC1jb2xvcj0iIzBmNjJmZSIgb2Zmc2V0PSIuOSIvPjwvbGluZWFyR3JhZGllbnQ+PG1hc2sgbWFza1VuaXRzPSJ1c2VyU3BhY2VPblVzZSIgaGVpZ2h0PSIzMiIgd2lkdGg9IjMyIiB5PSIwIiB4PSIwIiBpZD0iZGNlMnFwaWRqZSI+PHBhdGggc3R5bGU9ImZpbGw6I2ZmZjtzdHJva2Utd2lkdGg6MCIgZD0iTTE2IDFBMTQuOTE1IDE0LjkxNSAwIDAgMCA1LjUwMiA1LjI4NmwxLjQgMS40MjlBMTIuOTIyIDEyLjkyMiAwIDAgMSAxNiAzLjAwMWMyLjc4MyAwIDUuMzU4Ljg4NyA3LjQ3NSAyLjM4Mi0uMjU5LS4wMjYtLjUxNy0uMDU4LS43ODItLjA1OC00LjIzMyAwLTcuNjc3IDMuNDQ0LTcuNjc3IDcuNjc3aDJhNS42ODQgNS42ODQgMCAwIDEgNS42NzctNS42NzcgNS42NDMgNS42NDMgMCAwIDEgNC45MTkgMi44NjdjLjIxNC40MjYuNDAzLjg2Ni41NyAxLjMxN2E0Ljk2OSA0Ljk2OSAwIDAgMC0yLjE4My0uNTA3Yy0yLjc1NyAwLTUgMi4yNDMtNSA1djNoMnYtM2MwLTEuNjU0IDEuMzQ2LTMgMy0zczMgMS4zNDYgMyAzYzAgMi4xMTctLjQ5MiA0LjEzNC0xLjQ2MiA1Ljk5NWwxLjc3My45MjRhMTUuMDM0IDE1LjAzNCAwIDAgMCAxLjY4OC02LjkxOUMzMSA3LjcyOSAyNC4yNzEgMSAxNiAxek0yNS4wOTggMjUuMjg2QTEyLjkyNiAxMi45MjYgMCAwIDEgMTYgMjljLTIuNzg0IDAtNS4zNi0uODg4LTcuNDc4LTIuMzg0LjI2Ni4wMjguNTMuMDYxLjgwMS4wNjFDMTMuNTU2IDI2LjY3NyAxNyAyMy4yMzQgMTcgMTloLTJhNS42ODQgNS42ODQgMCAwIDEtNS42NzcgNS42NzcgNS42NjIgNS42NjIgMCAwIDEtNS4xMjgtMy4yNjQgMTMuMjUyIDEzLjI1MiAwIDAgMS0uMzc5LS45MmMuNjYxLjMyMiAxLjQuNTA3IDIuMTgzLjUwNyAyLjc1NyAwIDUtMi4yNDMgNS01di0zaC0ydjNjMCAxLjY1NC0xLjM0NiAzLTMgM3MtMy0xLjM0Ni0zLTNjMC0yLjExNy40OTItNC4xMzQgMS40NjItNS45OTZMMi42ODggOS4wOEExNS4wMzcgMTUuMDM3IDAgMCAwIDEgMTUuOTk5YzAgOC4yNzEgNi43MjkgMTUgMTUgMTUgMy45NDkgMCA3LjY3OC0xLjUyMiAxMC40OTgtNC4yODZsLTEuNC0xLjQyOHoiLz48cGF0aCBkPSJNOCA5IDAgMGgxNmwyLjMwNSAzLjMwNUw4IDl6IiBzdHlsZT0iZmlsbDp1cmwoIzNkY203ODE1NmEpO3N0cm9rZS13aWR0aDowIi8+PHBhdGggZD0ibTI0IDIyLjk4IDggOUgxNmwtMi4zMDUtMy4zMDVMMjQgMjIuOTh6IiBzdHlsZT0iZmlsbDp1cmwoI2FjdzI5MTJ4cGMpO3N0cm9rZS13aWR0aDowIi8+PHBhdGggZD0iTTggMTJoNHY0SDh6IiBzdHlsZT0iZmlsbDp1cmwoI29zaDhzMXA3N2IpO3N0cm9rZS13aWR0aDowIi8+PHBhdGggZD0iTTIwIDE2aDR2NGgtNHoiIHN0eWxlPSJmaWxsOnVybCgjbXplODNpbXF5ZCk7c3Ryb2tlLXdpZHRoOjAiLz48L21hc2s+PC9kZWZzPjxnIHN0eWxlPSJtYXNrOnVybCgjZGNlMnFwaWRqZSkiPjxwYXRoIGQ9Ik0wIDBoMzJ2MzJIMHoiIHN0eWxlPSJmaWxsOnVybCgjOHFva3FlaXVmZik7c3Ryb2tlLXdpZHRoOjAiLz48L2c+PGNpcmNsZSBzdHlsZT0iZmlsbDojMDAxZDZjO3N0cm9rZS13aWR0aDowIiByPSIyIiBjeT0iNiIgY3g9IjYiLz48Y2lyY2xlIHN0eWxlPSJmaWxsOiMwMDFkNmM7c3Ryb2tlLXdpZHRoOjAiIHI9IjIiIGN5PSIyNiIgY3g9IjI2Ii8+PHBhdGggZD0iTTIxIDIxaDJ2MmgtMnoiIHN0eWxlPSJmaWxsOiMwMDFkNmM7c3Ryb2tlLXdpZHRoOjAiIHRyYW5zZm9ybT0icm90YXRlKDkwIDIyIDIyKSIvPjxwYXRoIGQ9Ik0xNSAxNWgydjJoLTJ6IiBzdHlsZT0iZmlsbDojMDAxZDZjO3N0cm9rZS13aWR0aDowIiB0cmFuc2Zvcm09InJvdGF0ZSg5MCAxNiAxNikiLz48cGF0aCBkPSJNOSA5aDJ2Mkg5eiIgc3R5bGU9ImZpbGw6IzAwMWQ2YztzdHJva2Utd2lkdGg6MCIgdHJhbnNmb3JtPSJyb3RhdGUoLTkwIDEwIDEwKSIvPjwvc3ZnPg==;imageBackground=default;" vertex="1" parent="UKZgeWSrZiBoHaI9SNrV-232">
          <mxGeometry x="3" y="3" width="20" height="20" as="geometry" />
        </mxCell>
        <mxCell id="UKZgeWSrZiBoHaI9SNrV-235" value="milvus" style="whiteSpace=wrap;html=1;verticalAlign=middle;fillColor=#fff2cc;strokeColor=#d6b656;rounded=0;gradientColor=#ffd966;align=center;" vertex="1" parent="UKZgeWSrZiBoHaI9SNrV-232">
          <mxGeometry x="40" y="80" width="120" height="60" as="geometry" />
        </mxCell>
        <mxCell id="UKZgeWSrZiBoHaI9SNrV-236" value="Elasticserch" style="whiteSpace=wrap;html=1;verticalAlign=middle;fillColor=#fff2cc;strokeColor=#d6b656;rounded=0;gradientColor=#ffd966;align=center;" vertex="1" parent="UKZgeWSrZiBoHaI9SNrV-232">
          <mxGeometry x="40" y="160" width="120" height="60" as="geometry" />
        </mxCell>
        <mxCell id="UKZgeWSrZiBoHaI9SNrV-237" value="" style="shape=image;verticalLabelPosition=bottom;labelBackgroundColor=default;verticalAlign=top;aspect=fixed;imageAspect=0;image=data:image/png,iVBORw0KGgoAAAANSUhEUgAAAGQAAABkCAYAAABw4pVUAAAACXBIWXMAAAsTAAALEwEAmpwYAAAJOklEQVR4nO2deUwc1x3HB2xxOMSGYgMzuywsw2mcUFuV7QRmt3GTyBVurKh1W6VViFrJUuy0liqqRrUi1CNqWtUXduK6lCN7AF6zzOziEtnse4MPpUfqHonbxTY7HDYG28AMNL6wYapZQ0tULLMwM29mPV/p88f+ub/PvHm/ee/tLIbpMDyblTwKMmwCJHYIEN/Ls/hRniXO8izezUPiugDxUR4SkwJLiAIkxqXPAkv08Sz+Rx7ibTzE3xuF+K6xzowvDwfMJtTfR3cZOUVk8izxGg8JhwCJnnChZQW/IkCCliSNBzJWo/6+msx4IGO1AIkqgSXOyy/gEUD8Ms8SB8YhXipWYbHY45obZ1OfFFjidYHF/6G6hIfKIXoESOy+cTKTwB6XjHbgFh4S1QJLjCEX8BB4SNzjWcI9GjA9jUW3CPwwz+J3URdcmL+YKakxGAWmEixawrVkZwkB06/0JEL4fzGTPCScw6zJjOk5vV5yf5ercLK7KV8cCZiRF1ZYLJD4Nw+JH4gsthTTU6548j7f3Zw3FHQUiTNccBWK109koi8qKwvndNMy93tzfi6NitkyZuhyFolD7VmoiynKAQ/x29KzjChiMZgW01OflcB5yD/NJeIzUhyF4uDx6JASBuJ+aTUB01IGfRZrd3Pe8KNkzGagLRt9MWUbLURwrNOUh2khl5nsDZca8+9EImOGq9EkhcVHRjtxCqmMPh+59YKr4P5CZARnpByPIikQvz3GEluQyBhgsl6+4CqYc/KOhC5nkXjtA0s0jZS7fCf+sqoyBr2W8gvuxcsIzmqJh09mRtNImRgFxEuqyBjyk89cdC/uNjUXFxsLxFFgQl5M2YD4LWkfR1EZ/W15pktN+bfllhGcpudYHvpCygoujID0YkVkiB4sLtScd00pGcH/dl5WDRRSzpFC9Iyz+ErZhfS25H6otIxg+MGxKKrmk2nekVVGP51dqYaM4DTdzfmoCygb0t7+NXZVkmwyBr05a7pkaG8jZcCv/1sXD/E/CGcsKZic4Ty5V9SWEZRwFokjHTpesocEPeDHl8kqo48mf4ZEhuMBvV5Sf6MivBGHvyn7gYlerwVf7LKIHNzQ0R4KD4mP+E5iLaZEuGO5Z1HLCDqKRE4HzybSoT0B4K8otjcyRBc81eUsnEItIzgzSjTYBvMsfkc6ADEGTeWKn+fiPLmfoJYQnEVvSy56AZC4IbA4kA7VSYuHsrayj8plb+7Gq/5su1bob8m2CR1pOWrDn0q3Sm2rZrdpjRgxYsSIESNGjESalNd2Z6749m6rlknZ/o4Fc/elKILnfBymlaR99+30HCspklnZmsaaVyTGOy+J8W5OEeJc3PV4d+hv8W5ub4Kbs2MecQkaIV9/owp1scl5krQnoJiQOQT1x7u57aqLITZ/6y+oC03Ok8/tOqCakP8ROhffdJFUTYhlvf1T1IUm50nG13YiEMKJce7QcHxj9ybFZWRVVCTkkPnIC03Ok0z7V5AImWYiPLcombRXKreiLjIZAdbVJSiFPBgp7r4c5YR8dUc16iKTEZJY83e0UlwcUEwIvqWiA3WByQhJ2gOQCgnT2LNZESGmF75xHnWByQhZ/pMW9ELc3J8VEWK2lQ+hLjAZISmVv0Ut4wGOXqvsQizrv6iblpecJnXnr9HLCE/w3C75hawrvYO6wGSErNz+NnIZ03hkF5L19IYJ1AUmI2TVd6q0MkLOyi7EWrx2UndCXv2xRoSEQoaQLA0JcXHdsgsxblncYm5Zp2UXYkzq3CJGSahZfiFG2ysuWIgrtFN2IWbblkHUkzQZIck/1MCDoSs0lei8KP/7s4gXv/kJ6gKTEbL8p+iXTuJc3BnZZYSFbKk4ibrAZIQk7YXIhSi2WWUsv3MLmcwZTKmkV/yoHPUVT+ppg8oVGkhs7FPwNbLbquJycguQF5qcJ2b7S+iEuEK3ljZ2fwFTOnpqfTNQHXIIjwxuA6ZG9HUMqFp9GW7utLK3KV0flAMqygh1xbm5bZgoqvsLKuMoKTd9W+KGwofi3KFfJrh7nsGqRHQv5zcOW5/XzmFrI0aMGDFixIgRI2rE1OzcaG6ttWuNZ0ErWdbRkqMqpz2r7CybgKFMqvvIxzE1+0Qtkex6T7RBBh2AuWWD9DkboJ0UZHY+B1rV+0UV6WsoXlp7YAq1hJhZFLc1ohUyBxRg/kUBuvJLHa2piktJa6rpRC0hZprE+oMipQEBDxdD36YAvd/O+uV/P+9Mck540xLqq++hlhFTs0/MZ1zIiz4/6DEbZHYpthhp9ta+hVrGsoZD0hWogWJHAGACdtarzD+6rXT/phelkKI2N/oCL2y0DFAB/zrZhRS11OXF11XfRyFjhQNxZ7VIKEh/ameZ52WXYvHWfz+2Zr+qMmJr9onrPjiKvKgyjJSbdra1THYp+NFaqKYQs6dOA8WUCcC0yC5km8ezJMV1+KpabW5poDVKZNCcYu3wGl9N+pOOd28qLaTk983oCykDFGD4sgCj7D+CFrc5Sp54/+CEUjKyWuqjZGQwt2wBWp2/0cvxOjYl1FVPyi0j2XlYuqqiQcaEDTDq/CnYTPJ9js2J9Qdla4fj66vFjR1e9MVcPHcp6NuKoQjJuJ5b1nBo0csrS353QFwbJS0uBZlyDGVMzbUlSe8vfKKPrdknrtbt0/hnGCmDvlJMCyn0OvGVriMDCxFC0o5oGBn/tLO+XExTEcWYVY017bERyLC2NmigmIsE0MzzHZ4VmFaTfayhcj6TfbZX7zLomzZI71D93O9CktvaQKa6jvRF622KAvRHdtZfiOktZk/dLxIbDt6b3U0V+fU8gdPhDShpGQnTa0poOhlvqulIrK+eKmnX7ZLIpA0w9ZsCbSYsWlJ6xm+hAPMuBek7GiiwOC8APUVBxm/rpJ/CojXUKTpTOhBAQUZAXvCHc5eCjMPOetdgj0teOHHiCRukt1OA/qsGBMwQogDz5qaALx17nPMsYAooQL9FAeZjtSVQgOmhAL2nDDIbdNHCqh076zXbAPOqDdANFGS6pfu4vPMC009B2lsG6O9JFwLq76u7rG9vXy7tSdtB6+vSlWwDdBMFmDMUoC9RgB60AXqUgsz9BwWnx8KfpaseMh9SkPbZAH2ICvjeoEDri3b2eAbq7zM7/wHuKuGs+0S2+gAAAABJRU5ErkJggg==;" vertex="1" parent="UKZgeWSrZiBoHaI9SNrV-232">
          <mxGeometry x="40" y="175" width="30" height="30" as="geometry" />
        </mxCell>
        <mxCell id="UKZgeWSrZiBoHaI9SNrV-238" value="" style="shape=image;verticalLabelPosition=bottom;labelBackgroundColor=default;verticalAlign=top;aspect=fixed;imageAspect=0;image=data:image/png,iVBORw0KGgoAAAANSUhEUgAAB9AAAAVSCAMAAABpAZCxAAACTFBMVEVHcExNxvlMxfpMxftNxPpNxPpNxPpNxPlNxPpNxPlNxPlNxPlNxPlNxPlNxPlNxPlOxPlOxPlOxPlOxPlOxPlOxPlOxPlOxPlOxPlOxPlOxPlOxPlOxPlOxPlOxPlOw/lOxPlOxPlOxPlOxPlOxPlOxPlOxPlOxPlOxPlOxPlOxPlOxPlOxPlOxPlNxPlOxPlNxPlNxPpNxfpMxftMxvtNxPpNxPpOxPlOxPlOxPlOxPlOxPlOxPlOxPlOw/lOxPlOxPlOxPlOxPlOxPlOw/lOw/lOxPlOw/lOxPhOxPlOw/hOxPlOxPlOxPlOxPlNxPlOxPlNxPlMxfpOxPlOxPlOxPlOxPlOxPlOxPlOxPlOxPlOxPlOxPlOw/lOxPlOxPhPw/hPxPhPxPlOw/hOxPhOxPlOxPlOxPlOxPlOxPlOxPlOxPlMxPpMwfxMxPpNxPpNxfpNxfpNxPpOxPlOxPlOxPlOxPlOxPlOw/lOxPlOxPlOxPlOxPhPw/lOw/lOw/hOxPlOxPlOxPlOxPlOxPlOxPlOxPlOxPlOxPhOw/lOxPlOxPlOxPlOxPlOxPlNxPlNxPpNxPlNxPlNxPlOxPlOxPlOw/lOxPlNxPpOxPlOw/lOxPlOxPlNxPlOxPlOxPlOxPlOxPlNxPlOw/lOw/hOxPlOxPlOxPlOxPlOxPlOxPlNxPlOw/lOxPlOxPlOxPlOw/lOxPlOxPlNxPlOxPlOxPlNxPk/1f1OxPhNxPpOxPlOxPlOxPlOxPlOxPlOxPlOxPlOxPlOxPlOxPmAWJzSAAAAxHRSTlMAAQcLEBYaHSAkJyosMDQ2Oz5JUVpjam5ydnd8f4KEh4mOkJSXmZyWjX56YVhPRzgyFAoFAg0XQWybprG4v8bN1Nzi6fH6/Pz9/f3379uvQC4fA3CBoKm1vc/X4Oj4/v/////+8Off1s7FtF8OAQQJDA8RTYuessLL0tnu9f////Tt5tDJdEVc/v763siGQyIcEzpL5fXzuyba+8NVKdPr1WcZkuzMrFPhrlZepOT/weyroz2h82YB8gjjZPt5uren8fhp/2eqbQAApIVJREFUeAHs1UNCRQEUBuBn29e2cl0bufa/mFw7yOebHM7/GgDg29QbzVa70+31B8PReDKdzRfL1Xqz3SEohhMkRTMsxwuiKEgcK9MUSSgqiuy2G003zLk13RuPhoN+r9vZbx0c1r4OAAAAAI6OT3qDsXX6HN1nKMHYjuv5QRjFSZrlxauyqs5fXbw1H4uqKsvXn8urNLmOwsD3bhxBJpCXmL+d3g3u281H9u7zL6pza+P4mgEBCxbEkth7YkOYAY3HhjQBRR0SVBCYvQYrOCB2ZRhsCPaGRoydGGN00o1ozDHkH3vO005RVMrUPb/vW8rb67PWte/7tggAAPA3i8URm5C4cOSc4s+nflGyYeOyTaVlm7PLKyqdhqqhTu2P//0HhqGu8qotW7dt37FxZ8nMKeOLq+eNWBdfY99FuAMA0GcWt622bnd9QsqeUR/v3bf/wMFDh8u2HGnIrXQ6nYYahgaKYXjU2ejNbTp6bOvh4yeWFn026WR10tD42JqYWptDegAAAFhiUuMHDhnafGrs5H0bDpZlHcluKswpaGk0DI/T0CBzOg1Pa8Hpwqbso1lnzv7ts3Nj5p5fMPjCxUu10i0AAGAbMOjylVMfTS1ZeuhqW25ufn6Fy+Wt1HDhdVW05Ofn5l5buen64r1jk5NSBl5yCwAA+D+Wmi/Xzv3HQL5/2Y2jeV6nU8Oe0/C2Z227WTTz3Jivhl9IkygGAIDDGrP71ryx03aevb31ToNLI4zTox5XQ1bm8R1FUxYlDayJsdklmgAAYK/LuJB4pXjakhtZVW15FV6nRyOX4W1tb6vKurv/k3vNQxJSay0CAIDpOe6vOz937IP9h1bn5ua3eD1qGq35ue0dXz/8ZNE3IwYPsAsAACZlS1hb/emMncuv5jgNp5qUYbgKH50omvXx3JT7dgEAwDx22WprBu0ZO+P6pjNH8pxOj5qe0+nNubPm4IYHi5oT0mvduySyAQBgTR14uXrSt3c3r27L9xqGRpXW9rYjx7YvHv94QUK9TSITAADpgxaemlh0uCF3VUVjo0Ypw+XKy712fPG4x8MTaiWyAABwKeW7CU9uPm2v1P8Bb3nmxpmzHyfGSEQAAFCYp11M+vjJjhsdef/ZlsPpy8m6u3TmorUDam0StgAAsNdcHJI85fuVRxoKGj3aDXicBQ0/bN05Yd6t+2m7BACAcGO/tC5p0Yxlq9vzWwzF+3i0JTdn88apo84PqhMAAMLHpctzJv24/Eirosc8TtfmHT+Nn5tYJwAAhJrdmvpz8S87blS1GtpLMAxnQcfdjdPvLaixWQQAgNCwpMenLFpceqehwDAUfWQ05v2atX1G9br7aRJsAABYBy58NmP5r+0FjYr+8rTmtx/9/pNTw+NtEiwAAPwW1zx2xveb89WfYORtXTL12fBLEnAAALhrho356WxZocujfgfD9fzGgRlzBnc6JFAAALDXJMyffGJzU77T0ACB4cx7/uL67OFxaRIAAABkpMyZWVqY16KGBha8re1NJz55nFgv/gQAwK6EkZ8XbS0wNHhQvuLJyeZU8QsAAOydg15+cWJLXqUGGRrLy75/8NVFm10AAOgXa8awk0teZBd4PYpQcOYdWVPycvAluwAA0EedXyZ9vnT17y6nInSM1vzTm4vGrI13S68BAGBbN+fBjudeRVho2bzk3DcJFgEAoOfstYnFJcezvYow4so6O7M6gUIdANAz1gEprza+aHJVKsKMJ7cq8+GzIfUOAQDgvdwJC8fffN5ObR6mDGd+TtbO4ssD7PIuAADEzZu4cbVPEeZWPX340dpYAQDgbY7Y+Z98fywyrmiH0Z65c/awWrv8BwAAvfmISQezchoVEcNZ+OL62HX/36cDAOBef/7THc9/b9XIAqcrJ2v/6GGpFgEAIHX+538c0UiFgpUlY1M6BQAQzXZZE2f//YVLIxmc5aWvnyW4BQAQpdISvisqK/RqpINv1Z+lM5IybAIAiDrWC3umrelqdaopwJXXdPDTERkCAIgqqUkTDzSouaAlq2js5U4BAEQJ69BxS54WeNR8UF5acu+CQ0wPAGDLmPvwUWGrmhRc2dtm/czpdJMDgNhhr5Y35DeqicGbV7Vhzi2bmBUAID5536MKRRQ4vWnS/HoxIQCAbej4pVUtiiix6kXR6Hi7mAoAwJ06b/GZwkZFFPE+v703Jd0iZgEASE8cu6wp31BEF4+r/c63yQOtYgYAgNSRDzJbFFEq98T4EbUS4QAAvw0csyHLMBRRy8jN/OlxvUQwAEDd0E8OXWsxFFHNaOk4UHzBKhEJAOCOn7f4zmmnKtBSnjn550sScQAA7gVjN7Zpo/4PwGjMenIqQSIKAKAuadqhdo/+G8DIXjo+0S0RAgDgzvhuw9X2Rn0D4C3P3He+xi4AgPBnG1z8dVuroUA3jNwjf/vmol0AAOEtZviE27kV+m5Aw/XRt+wCAAhfaVdm3MhT4P18XWcnJDoEABCW7Je+2n9slX4QYDgLD8+6nGYRAEC4cV8YdYA7ZHoMzrysxUkZAgAIK9ahH59or/BojwG+iudF1QkWAQCEC8faBytyFOitxmtLP75gEQBAOEj7ed/WPAX6wtO2adxAt4QaAKB+4S9ZeU4F+sjVVTp+SK2EEgCgft4XR1sqFeiHlvzDE1M6JVQAADVzS7K8CvSXJ6906nC3hAAAwHJp7t+zWhTwi7zMzy7XCgAgyOxxczdmr1LAX5x5W/aNiBUAQBBZ1r+8Xt7qUcCPKls69u3ZLQCAYIlbtPGaAv7nzXoyL00AAEGwK2P0zecuBQLCdexhUp0AAALMHj/qbINLgUDxFBwtaa4XAEAA7Up49n25S4FA8rSu/mVPrAAAAiVuzMYGBQLPSZcOAIFiyRh989cKBYLCdezHpBgBAPiZ/eLLsw0tCgSLp+AHf3fpAID7c5Z2tSgQTJ787F+a6wQA4C91yfuf+xQIvqfTUuwCAPAHa3NJlqEhARQcnjzQLgCA/upcMGNLvlNDBWi/PSbeIgCA/nCsm1BW4NQQAlpyDnwXJwCAvkv4aHuehhrgayt6XCcAgD6x1D/bcc2nQBjwZr1eaBMAQO/Fzrv+vEWBMOE6NivRJgCA3ulc+yS7wqlA2PBVrJk9SAAAvTF40qNWBcJM3s1nA6SHAACW1OLl5T4Fwo7x59+ardITAID0PRuvORUISy1Z0wbb5EMAAO6UGUe8CoSt/NKxCRYBALzXl+MPexQIa13XT9XIuwEAYp8ty1Eg3Lk6Fv9sEwBA9+oW7n/uVSD8efJWTh7okLcBAGyJU+60GhoRAE/7oWcZAgB4U+qY4wUaQYCmh0k2AQD8O1vz/ucaWQBn2ScXLAIA+H+WgXuv5mukATztX5+KFQDA/0o9dTDX0MgD+Cqe/3TZLSIAAPfPv1zTSAW0Zs5OEABA3Pg1BRrBgLaNI2slugFA3cibDRrZAGfWZ9zvHtUAuBfMWO3ViAfkly66L9EKAAYUH2pUUwAKi5LcEo0AwH2+qMFQkwBcZZMSJPoAQPyER/lqHoC3fMc3dRJdAGD3npvlhpoK0Lp62hC7RA8AsAyZ2tGopgPkb3p5SaIFAMS8PPi7mhHgObI4xSHRAADcC54caVWTAvIzTw6wiOkBwP0xa1yValqAr3BDs1XMDQCszUWFanLAi4lfipkBQPy5shY1PaB96VedYlYAYF14vbBRowDgytobL+YEAHEfX23R6AA05hyYnybmAwDu4UVdGj0A59VPL4rZAMDu4lKvRhWgbcNah5gJADgSX2drtAFcZ07Wi3kAQM2obS6nRh3A1/AwxS0mAQDrpj/X6AQY20bXixkAQNp3J/I1WgFG9i8LJPIBwIUHHT6NYkD78eo6iWwAUHtlWU6jRjWgtWn6QIlkABA3bnOlRj0g78CeTolUAGC//Lc2BaDqfTE+QyITAKTfO9yi/wPAtf1D3RJ5AMB+a9/zRgXwv4zWGy9rJNIAgO3xslUK4F8a/5x+yyIRBQDizh0zFMB/KLg50i2RAwDsP284bSiAN1Q8nZghkQIALo0+U6BvA+Dr2n/ZLhEBANbNbFMA3XPduHdJwh8A2PYsy9V3AeC5xr1xEQBA7MkXXgXwHl0bR9glrAHAwF+aGhXAe7WemVMj4QsAbM038/RDAHiz966XcAUAMYsyGxVAD5RvGGaRsAQAF2d1KICeqbydbJXwAwDuy3+0exRAD3nuTBwg4QYAaueUNiqAXigvSbRLWAGAuL0dCqCXTnzjkDACAEOLchRAb7W8eBUr4QIAbI8PFTQqgN5r+2KQhAcAqP8oy6N9AmDVxvMWCQMAMGh6Q6P2EQDXjVFpEnIAMHxjl/YdAKMj5OfXAKA2+YZL+wVA4evBEkoAcH/2Ua/2E4C8s81uCRkAGPxTg/YfAOeZe+kSGgDgWHjzd/UHAI0/7M2QUACA9FFnXOofAIzC/YN3SdABwP3Jq9V/ALi+vmKVIAOAdSXl6lcAyopjJJgAwD5imUv9C4DRMXWABA8AWE+VujzqbwDKSwZKsABA3UebG9X/AFSuup5il6AAgNS9zzUwADiXz7NLEADAwF+6DA0QAC2Zf1kl0ADAkvJHngYOAOPo+N0SWABgn3eoRQMJgKdhWrwEEgB0vixzaoAByP1xnQQOAOye3VGpAQcg9/uFEigAEPegqVGDAICr9LFbAgIAhjzM0eAAULlldJ0EAAAMX5qvQQMge8IA8TcAsO/h8/agAhobZl0U/wIA26kynwYTgMquklviTwCwe9EPXg0uAEbe98PEfwAgY2K2U4MOgGv5fLv4CQDEf3bN0BAA4Lvx2CZ+AQCD9ndpaADwXn2WJv0HAJZhBwo0VAD4Vs++JP0FAI75y50aQgCapl6U/gEAW/Jhn4YUgLbXA6U/ACBm0VWnhhiA9utDpO8A4NKE1Rp6AFwnRlikjwAgdeo1DQcAvIfmO6RPAOD+zAYNDwCM0m8c0gcAsL7ktIYLAN6yU1YBgF4btL9ATQxOw6NqGBox4NuyqE4AoJcW/OFSU4ChTqfH6XRqRW7h8yNZW56u3Jq5pnTbikOblm86tGJb6ZrMrSufHss68mthboU6/+d31dBwhI5X6QIAvWEZvsyrkQceb8s/5Ofn5uY2ZT0q3X7zj6LXM6dNnjjuo+LRo6qTH4/ckzT//MK1I4anDBu2IHFd4oJhw1KGj1i78Pz8pD0jHyfPGTW6+ONxE/dO2/f6b9dvbi99dKchNy83P7+lpaXS69GQw9GJMQIAPWdfu9ylEQOGGl5XXnlT1dGssu3XX0+bUHwqKWXBuiGDLqyPy0iNreu0OaTHLA5rZ11sakbc+guDhqxbcPnKd8UTp5dc3/Qo62hVU3leq9cI4fyOaw8uCQD0lG3eXY0EMAyjsqXhh5WHN9389sGr75oT4+t3p6d12hy7xH92OWydMem769cnzq+ePa1ox/HDLzoaXN6Q9O8wymfGCQD0jO3UGg13qHR6u47d/v7bzyYVJzevy7BaLBIMFos1LrH51NjJM4sO3N3S5SXVg+70kwQBgJ6wjV6p4QqNra2t+XkdK/74ZdKYufOHXoi1S2g46gcOS0ounvzT9W2rc/MrKip8GhzIK/pSPgwAasdmaRiCxygob6rasrxk0rPziYMu1lslHFjr4wctmP/X3m+PZ2U3dBU4fRpwyP9jnXwIANR9utrQ8ALD+P3o1kNLfxl/6vLF2BirXcKN3VoXu/7n6glPDqwoW51naGCh9WaKRQDgvdLGV2k4gbHq6O3rv0z4bnic3WKR8GaxOOJHzDn3ZOO21QWVGjDw+M4OtwgAvEfM539qeEBjRUV+9vFv946eNzTOJpHEGp8ycszU/XebKlorNCDgOXjeIu8EAHUTszXkYDhb89qyyzZMSk4ZlNEpkSnt/q3h1VOuP80uzPc61d9QcajZIu8AAOkTmwwNLThdbVsOfz/9r8sZNdZdEtksnbvj1o6ZuePG5i6XV/0KnhVXHAIA3Uo/d01DCYb+um3JjJN7vrTaLWIWFnvn4JGv9m083OAx1H9glD52CwB0I31yk4YKKioqsr/+afbclPtiSvaLw0+Nf328yVdRqX6CzFN2eQsA1IQoz+Fp+b0ta8eDOcMH1tvFzNypg9bem3Hwh4a8VoUfeB7NccsbAGD35DanBh0a86syb055PLC+1i7RwJFWP/i76WfLnruc2l/wPX1pEwB4I88bNNjgLV/zx7SXiWkWiS72mpTRny0ty/FqP2HLIqv8GwCI3dugwYXWrI1TXo7I2CXRyb7+/OhZN1c3ar8ga+y/JToAxE5p0KCBpyW3beviZynrayW61V34eUzRsbb8Sqeirzpe1QoA/J/6KYUaJDCc5ceWT/smvs4hInDXDDz1xaGsPm/f4asaFyP/AwDqP2nQ4ICzYVvR+Ob6fwtzWBwZ8yb/PTNH0TfZs2vlHwAgNlh5jq6vZ70ctlvwttQRi/bdbVf0xeqPrRIMAOjP4TEqfv91+d4rg2IE77J7yFezStvaW7W3cHSsTUQA0J97NLDg7Lq67NzaAZ3yfkiLu/Jg++acSkN7A5UdY6wSWAA4fw6j8Mb+8WvT7dITsF+6MvmPR+3aG3Bu/ssmAKLa7gCfP8eqM08WDY+V3kBG88dFW1zaC7j60iEBAYD5HM6Wri0PXw6tl16D/f7wsX8cPd3i0R7C02qHAIjm+dyjAQHD1VC2869bu3cJ+sZdv+DV0qflXu0ReB6dcggA5nP4lyfn8MOx66wW6Q/YY4aP/3tZgfYEPJlz3QIgKtVMvqaBgJarP469nCbwh0vnx/39iFd7ADdG2gVAdM7nlQp/a/29auPJy6kWgb84Lp6fcLAtz6UfgJbSJIv0HwD6cxi//7B90vBUt8C/rPeTppdWFej7wbjdvEsARJmaSQ2Gwq9asg9OHxmga9rhvlj95Ha5U98LmxZaBEBUSZ/0q8KvfFcXvxxol8CBLbF4/2qPvg+WDRMA0ZXnTQo/asm5O2HEJQkw2OOSpq3McfkU79K69JYAiKZ9e5Oh8BcjL+uPUes7JRgQc+ujs6vzKxXvkP/3gQIgWtSca1L4i9FwfHpz3S4JFthTH79ec1rxDgUP4wVAdEg/96vCT7xVO4vXOSS4YP15/IEun3YL7V8MkJ4DwPdwMFy5j6ZfiROEgPvC3JI7+S3aDZTP2i0AomE+pz/3C6er6uuPBtcJQmRXbMonpde8irc17E0XswOQPvFXn/YbGtszS5IvOQSh5F4/5u/HCvRNMLLH14m5Aaib+Fz7D4XLJq6NEYTepXnT7ubqm9BR3CkAzJ3nv2o/wdl6bUP1ILuEB3QuGHuw682H03FsjlsAmHrfbmi/wNO+uSQp1SHhA7b46o1HCjz67/DiG4eYFYD0Cb9qv8DIK53xc5qEGVhiRz584fIo/sWbeWWXmBOAugnZ2i8oPzhhqFvCEWKSph0uUPxL5fERAoD+HG9rLVw6erBbwhVqh326Isel+H+Ny9aJCQGo+zxb0Weegqolj+PcEs5gvVD8dVOF4v+0LEkQ0wFQNz5b0WeuY9+O3C1hD/b7fy094lT8r7zF98VkAKT1I8/hfbpvXp1EBmSMKqpq1P+Bwqn1YioA0vq8b0fjqqcPzqdL5EDGVyXZBV79B2S/ShMTARDT1zyH73TmlAV1Ellwqfl11ir9B/zw0i1mAtCf+xR94MnZNjkiP2xH7dpfVrYoVI+N/E0A0J9HuYLDkxfsksgE6/x9mxXqPXxezAFAbZ/27XAWrJyc0imRC7uTfqpqpUvXE0PFDACkjcvWXkNl7tNpQ9MksqF+ftHq/EaNcq4lX0rkAxAzrkp7DRWPZqbYJPIhfeTODpdGudzXcRLpANSOW629Beexmc02MQfsPrUz26PR7fS0SxLZANT2ft8OV/ZPSXViHrhfvTHHo9HMaPq0ViIZgLRe79vh+nXJnnoxFfx28a/jOU6NYp6OOXYBQH8eTdoOVF8S08GuhPErcis1enm3XrFIpAJQO3u19gpyToy9KKaE3xL3rjEMjVre7UMlQgHo7N33cPAVlM4ebBezgm3EtCyvRq2CDQkSkQDUvlqtvYDcq3uHdIqZoeZ8SXarRilfzox6iUAA0nqV52g9ujjFKmaHmscHCp0anTwNE2Ik4gDo/Pio9hy6rp9KF0SD+FfHXRqdnB2jbRJhAHS+OqI9hta7YxMEUcIydOpmjVKP9lgkogCo7UWeoyLrQaJNED1imjc0tWo08pn3U3eA/hye1RvO1wqiiqX+2deFGoV8lUsuSOQAUNvz/hynl/1VL4g+X07KdGkUKtiXKpECgPWjDu0R+CpeTLwliEq2ET9d0yjUNilNIgOAzpMdPu0JuNqKRlgF0epS8td5Xo06R+45JBIAqD15VHsE7Zte1guimP3C5EcujTaVZc0CIDLmc+0JeFZOHWQRRDdH88Mqp0YZ79l1EvYAWHuW5zAKi67UCpB6b1OBR6OLqyROwhyAzh7t2+FpL72XIf8AOAZPuZOv0aVrUoyENQC1PZrP4Tsy40u7AP+rdv4fDV6NKtmj7BLeAPpzj34IfHk3k2sF+Jf749a0ajQxwvrDOAC2sR36Ycjae0v+A+A4/22XRhPnjiESrgBYiz88n8PZfnNerbwJyBib6TI0euT/lCHhCUBncYd+CFquTo63C/A227CiPw2NHuWfdwqA8MzzLP0QtP1xxSbdA2KL766KpleJqndJ+AFg+3Cew7lyXLwA7+RI+eVao0aLxsxmCTsA3GM69APQtWFhp7wPkPrsRp5GC+P7WxJxAPpzrLo6/r58AGBPfB09Z9Lzw+0pVQDWRVlOfS+0X+9Rew7UF5cWaJQonG2VMALANmazvh82T7ogPQL8NuLHQo0SW0buEgBhlOdZ+l7I2zGvU3oKuH/ykdPQaNC4fZ2ECwDWD+Q5WrMeXLBLzwG2EUsaNBr4Kn4cIOEBQOeiLH0f/H4i2Sq9A2RMeOTUaNAQIffLAPTn+HP6YOk1wHplabtGg2Pf7JKwB9CfY9WaOfUC9MXAKVVeNb/K7YkS5gD6c1S27R9mF6Bv6pJXtKv5tewfIABCzDo6S/Fu3qefZgjQd4mLGzxqeoUTOgVASLlHH1O8W/7SeVbpD2DAyUctanbGlrkCIJRso7co3smXPXWQ9BPgaL6ep2bnPD5MAISO9T15Dt+qFdUx0m+AJX5KR4uaXOXDOAEQjnkOo+3hArsA/mBN3u5Skzt9rlMAhIb7r2OKdzGujh8ggJ9Yhn5bqOZWeTRZAISE7T15Dt/xx2kC+M/9cx2mP42+QACEJM83exTvULgz0SGAP8UkH3apqXkXp0rQAbA+u+pRvMPmyRkC+Jk9ZUm5oSbmK/zYJkEGwP3sheIdWrdVpwngfwlTVjeqma1sFgDBzvOrindoX3LZLoEAxI7a2qIm1ro0XoIJgO2d+3Z4sx+slwABHGu/7zLUvHIe1ErwALC9vKrdg+vMX3USOMCFGU2GmldHtQQNABv9+Tvl30yySyABsSeP+dS0fJsWCAD681Azup6skwADbF8dr1DTcpakSlAAcNOfv4uzY+IACTjAPmxnu1fNqvAjmwQBANuoF9otVJS+tEowABenPfeoSTUemy+BB8A96pF2C6s2nrdIcADpJ7eqaS0dKIEGwPGu+RyFXwySoAFse054nWpOOVPrJLAAuOe80G4ha/wlCSLAnrg/R83J15EsAQXANmeldgfew99ZJbiA+7OyPWpKzuVDJIAA2OjP38E422yXYANqZh/zqCmtmhEjAQTQn6/UbsDIW7JAgBBIq870qhkZf1ZLoABwf7dSuwGj7acEAULC1rzJpWbkCdjSHYDtu0faDTizJl4SIFQSl5xWM2qZuVsCAYC7eqt2A56V99IECJ0LPzWoGR2ptggA/3N8V6bdgHfbSKsAoRR3zpwfu389RAD4naP7fTval122CBBaNaO3VKr5uGbWSVAA9Ocwyh9+KUDI2b4p9an5ZM8RAP5l674/R9v09RIGgN+aD7rUdIxDiQLAn+zd9udovPZ5hoQHYNjGfDWdVTNjBYD/OJLLFG9z3imuk3AB3CrJUdOpmiMA/MaWvFXxtsat1VYJH0DctIZGNZtN6wSAn7iTMw3FWyoOjbRLOAEuTchu5Et3AO9gTz5j6Jvga122VsIMUFfc4VNz8WZXCwD/9OdbK/VNMPL2L5CwA9jmlDnVZL6+JQD80p8b+iZ4y79IkDAE2OetqFBzWTWtVvoLgLvbfTsKH2RIeALOL3OpqRhbvpF+AmCf2833cPBdm1gv4QoYtqRCTcW7NEH6BYDjcTd5Dk/VuHQJX8CQ/QWNaibtE6zSDwDcczMVb3FuHtsp4Qy4sDjHp2ay+bwA6E+er1G8peLRS5uENyDus9NqJs4lGQKgr+zd5jlK5zok3AGpUxvURIy2V78JgD735/om+Hybrjgk/AGxE7M9ah7Owz8LAPpz/3HtuGyRSACkfXzHUPNofJIqAPrA/dUNxVtaly6QCAFYF21RE2l46ZBeA2AZedijeMvGCMpzwPbXMTWRFUOktwDY95S26pvQeGCoRBDAeu+qT00jd1+t9A4Ax7zDire4dgyTiALYRr3wqFkYHckCoJd5Xqp4S8XZiMtzwDHqkZqGsfSC9AIA+7xtiredGC4RB3BXl6lpnB5vld4A6M8rFG85McIikQewndqqplE2XHoKgL27/hyVx89LRAIcczMr1SS8JfXSMwAcV+4q3uJakSQRCrA/XlOhJtH20iIAerZvX6F4i3PFlV0SqQDHN6VqEsamQdIDAOxJ2yoUbyndYxcgkhN9TaWaQ/tUq3wQAPuVbT7FW0rnWSSSAfa5Z9QcKldeEQD0531SEfl5DtiTt6pJ/C1OAHxoPr+teNs2E+Q54DhVpuZQuMgt7wPAnnS3QtHNvt0hkQ+wzXnqUVM4vE7eD6A/V/OiPwds94551Azy3v9IC0B/ftupJkZ/DrifbfGpGXQ8FgDvYkk65FGYej4H3KM3qxk4r6+X7gGwzL/dqiZHfw50FneoGXSN3SXdAWCff9epMP18DnTOzvaY4r64IdINAPakbvpztJgvz4GYiQ2VGvlckzoFQDd5fsipeMthE+Y5UDOlS03g2M/SDYD+3KV4S+lIh8CvLHaHzWbt3B0/ZHjS3OqXo8ecfPXphEmfPJj12RdPSoqKHj754rNZD/aem/Dpq5NjRr+cMzdp+JD16Z1Wm81htwj8JXV6u0a+gpIYeRNAf77C0G7Qn9sF/uFOi824mDCkObl44mdFS49nbn2xJetIVfa1a21t5eU57fkul9erqh6vt8WV355TXt7Wdu1adtWRrC0vtq45vrRo5sTi5ObEhIsZsWlu6TdcfF2gEc/bkSwA3sjzQ4a+CYY/9u2wpV5I/Hn+qY+nlhwo/aGtsOu/2LsDv5jyt33g90yrpEqwsSwgdnehphmCYpOkiq2xQppmzj0QaqrgSzpzSFHsKivZzWIVy8JYWESstf/Y7/V8n93fs5pQVZn7fK73P3G9rvuaz5lT3euavAZ72KPx+2isM3t0dnu967pPvc49f63mYmHnlNvj42KabXYaBGjekMXiaWkt9C8AUH7iuIchSM0ECw0CWFtix8+f0lmY9lWxiz0aDxlvZvFXaYWzp8w/l9RiJxiYS6leFq/230/XAKD8zHEvQ3A/v+EkGAiHz/5R/oSGhIO7Lz9r8xqaxsNB1xvbnl2+eDChYUJ+ld1noX6CpIsGS6eVRhMA/F8/P+zmniBQM8FB/QWOMNvocVdnbd61+lpttkfTeJjp7M8+f2V10Z5ZV8cV2MIsBP3wcFWApWucUUEAgP38HbSaCeUE/VIREbMofs6W1vOuLK/bo/OI0XW9Kct1vnVL518nYiIqqK9gfE2Apav7ngD+hn6+VeNBwn4OYVH7Ns5JranlD8ufW/THnI37oioI+qJ84g6Nhct+FUYAQESWE8fdDEH6vJ9DubMsaf6sg6t2tHNI8OhZrddX7L8dU+m00HuAM347C2ccu0VEAGBJOR5gCPLjDQe9H1iSR0XPn3d9dV67X+MQonnb824emrs32pZM7wQVU2t1ls1zoYUAwJGy1c09gf7jjScE72MtSDzZ+W2eK0vnUBRoXPv62MpZE8cW2OntoHr2a41lOz+JAAj9fJWbg0D6T+X0blA1du/nF+oaOeTltL6ceTIpmd4GIl5lsXArfyAAxVm+LnVzEEhf4KS3g3Lfkn3TD/7c5tVZBM379PCGbxaNesukDmO2eFm27gZcYQD7uc49gX/9T06Ct/FVRc5/cDnD5fGwILrXVXz50cTmMgdBsFjxl7qiMQSgdp6XMgRLv/WEegeOlu+XbtiRm+3RWB5tbe6zwseJHU7qCU7UGCxa90wfASi9nzMEW/+WPAdf88JvNheXsGglrSumniuwELzhyYI6Fk3fmUQAyrI87D3P0c+dBEEsvsjbcy9mrNNYvnU77nUuiHCWE/wf66Q/WbSsBCsBKJvn15sY+pLn4Cwb87yw5oiXTUL3ZP32852TzYst9A+onJHLkvl3niAANVnGleo69wB6+k8Wgjctjp6/4Yor22BT8ebk3n01cUwYwd9sD9ayZMaBKgJQM8/rdYYg6Que0L+BM3LiZ7uy2Jz87Vtn3cCe/o/IVA9LlnGOlATI8+vI82ABvFd7k6Xq3OzdazxsYoFr92amVNL/gLGlfpbsl2pSDoAlDvt5L3Ts52+oiNyYVrxWY5PztLemXi3oIiBatFNnwdpuldN/AaCf497uoL+BL2JRwjaX188K0L256/enLEEYkPPkFZYs7Sz9GwD2c3xPBuxjG1Lb2MPKaOJjK+Lz7YR/XmtjwX6PJ7UAxF3nd8B7NSjbt6xoHavGcJXOPmElxVUnZOoslnZxNKkEIG5VE/cE+mnk+f+yhz++sCNLYxV13z14a5STlFZw0Mty5U4mdQA8iav3MwQ5PdFBQLQ4durl800aK0r3Hv12UnQYqSy/VGOxjN1jSBUAlrh6hmA7F1gIaNTChNNcwirTm7JrPj9RRuqyTKhjudonOUkRAN9/6+deoJ87SXnlEfEHrzQycOPdwts2UpZ9ytEAi3W8mdQAkFjfxD1BYOdEH6muK39a6RpN4/8B3mO7G5rtpKjqudksVvsnTlIBQNx1P/cE+umJ5aS4qrhld081avwP8LrSZyaFkZoiX+oslefnZlIAwPcr/QxBdir/e7iyRQnFjTq/AfScnTMf2klJ4370s1SuT8n8ABJ3I8+xnwfrOrfprpehF43r56gZ6Za9eToL5dkaTWYHMHZlI0MQxfdzS+Wiwjovw1tknV42tovU0zUtk6Va+80TMjeAxJUavwlwbz+7qPDYOp3hrQLtOxK+X0zK6XhVwkJpx2PI5AD3duR5MF3tPK9e+CCvhOHd9Ka6zjMVpJqkQzoL1fiFnQCQ56rZpvJ+HnZjeQZDXxjb5p6xkmLOtQZYJu3HKDIvgLGHGhl6CtxUeD9PHr+h2MvQRzk3DyRaSSm+hloWau10OwFgP1fKzZNOUtTicXeuZTP0ndZe1xlTQSqpfpTNMhk788mkAMb2fm9HnjtITRVxncVejaF/ctI/zfeRQqJWBlimzFkOMiWA2IsGB4Ftqvbz8pjP12czDEB36dRIUsi5bSyT/+ckMiOApIteDgLbFN3PHQWf7jrFMEC59fE2Uoa94SnL1DijnMwM0M8B+7llyfzrrxsZBsxb+/LcR6SKsk1rWabSfDIdgLH/Mfh/AfbzqnMbzpfwoEDjmmUPu0gRkRdZppwGH5kMQCzyHPv5P5zfz83w86CBN33GGFLEotP4X/TQAtjPAe/PHS3T07N4SICrNP6shVTg29imsUSZk5xkJgCxyPO/YT+vWlCfy0MFGo/uOdNFKvhoUzZL5C5dQiYCkJRmMGA/JyJf3IHtbh5CULJjRhSpIL+URWpbSmYCyHM3B4HVtx2kmtFTi3ioQdbKx9VkfpYF11giz71wMguAmP80MvTkeXbSR4qpuJHm8vCQA/f2X+LsZHpdM7JYojWPySQAkpDnvXk230dqeXJpzm9ehmGRs/pFB5ne6D9YIn1POJkCQNI9N/cCee4ktZw9eXxtgGGY+F+nju8iszuT7meBni4gEwPs58hzBynFknQgT2cYRvrNGaPJ5JyT12gs0K82ApAv5l4j9wJ5bielVC29nMMwzDLvTbCSuVUvz2GB/hxPJgDIcy9DT8Yzxd6f+2ILfy9hGHbejP3NFjK16OMelqfkfhgBCBezxeAgsHqvk1RS/XiXoTGMAG1t2rkKk79du8LyBK58TQCy5W/xcBB4ttdBKomZN3K7J7jrpkWQmVV+vpblyZnnIwDJorfg3o79PHnvqiydYcTotakpPjKxH/7D8vhrEglAsPy0Joae9Ge3naSQyISnAYYR5a2bYiMTm1DnZ3FyphEA7u14fy5Y5cL6boYRl/trop1Myz7jFItjHIomAKnyL3hYcXh/XvBdMcOH4P4qfjGZVsuWJhYnM76cTASwn0OrSvu5L+XCeYYPQzty4JKFzGpRq8HiXAgnEAp53sRBoPW5nZRha7jpZfhQPDnXb1WQSVmnZrI4uRMIZEKeGxwEWj/2kSqcsfdzAwwfUNOxmaPJpFoOGiyNd0MlAcgT/dLDvUA/d5IqrCdX+Rk+sKyD456QOaWcDrAw/t9SCECcqAtNDErf25fMKG5k+OCyi56HkSk5G2pZmpxNPgIwwX4OgTp18twSu8LlYQgBnrzZEWRKtj1eFkZLTyQAWfLRz3uhtz73kSLCThZlM4SIU1vG+ciMHm7TWJisGeUEIGs/NxhU3s9bvjtiMIQMY/3HlWRC1i9dLE19NAGI2s+9DCrv51GFtQwhJWNmNZlQwYUAC9O99AkBiHHpZTYHAXX2c9+iQ+0MocVT+2u0hcxn312W5mU4AUgRldrEQUCd/fzsX60Moafp0HgrmY59/6kAy1J7jgCEiNrcxKDwfj6686nOEIp2bqwk0xm9sollaVyeTAAijEE/782Ox3ZSQ8xmF0OIyuscRWZTfuMIy+KuSyIAGXmezT2BXnzVTkrwpazyMoSszPuXyGwqZxssS+bMcgIQup/DDlXyvHLvaYMhhDWljXOSyeQf8rAo7q3NBCBzP4fiqz5SQvWnGRpDaLs80UkmczWPZTk6iQBCXST6udL9vGVeG0OoK2mdXEnm8tEvXhbFfXAUAYS2HzbncE+gK5Pn+ZuzGAR4un8JmUvcDhZFy9hHACFtDPJc5X7uS1npZ5DAyHw0hkzFPq2dRfF0VhJACBtz0MtBoPgvH6nAvreIQYrs1DgyleaVLEt6PgGErsjNXgZl+3nylB0McjSV7nOQmdzOY1GyG3wEEKoicW9X+f25bf9TBknc2+ZbyUSqH7hZEm3rKAIQtJ+DvuMvO6mg+ZHLwyCKcayhikxkXLqHJWmbSADYz7Gfh5z8X7MZpPG3zegg83BOc7Ekng3JBBCKmg+u4yCQoUiej0tbxyCPdj4hgsyjoN7LgnhuphBASOZ5DgeBjHgrKeDJotJGBom03FeRZBrlt9pYEK1pJgGEnshe8hz0jHg7KcB540edQaj21CgyjepHBguiX4wkgFATuSGHg0DGUjspwPr8mcYgVs7FODKNMzdZkraTBCBjP8e93UcK6Jp0xWAQrGRVCpmFdVYOSzLvIwLAfo79PERUTD5iMIhmXD5RTiYRc9lgQe4mEQD2c9zbQ0Pll9sZpNPWj3eQOVg+qWVB1k3xEQD2c+R5KKj64qjOIJ6xfoKPzCF8dwnLodfbCCBkNPeS5xBQ5Pft1dOPamwC4D99y0emYFlwlAV5uo8AQjnPIaDIfm6bVetnUwDPzZN2MoWzhW6WY90dJ5mML2zx4rAKH4HAe3tWgHsAT8ZSKylgVOdrNgsw6vZayRROtLIc7pp8MpOy6H0NhVtSf5n34mGHg0CUyF+yuCfQFdnPO+ZksnmAP+N5F5lB2JxGliP3BZmHbWHCtuzsEq+3pLHkyB/xBQSi7u1rOQgUq7Gfhye4NDYTqHtsJTMYW8RyeP5YQibhiFt+zcP/n+5KXVBJIEVBL/s5+K9MspICwpflamwqoBf/ZSUTcExz6SyFVryPzKFrb3oTv8G41hlOIKWfZ3FPoF3ZaCUFtMzL9LDJgH4lPplMoPmwwWK493eRGXz04orOPb3ekuggEKC5l/0cAhmK9PMD3Ww+YPwW30XyOZZmshyHx5AJVH+3hnvh/2pROUHIKyhs5yCgSJ6P+szFpgQ75vtIvpY0lqN9IslnbXjKvXJfPlNOEOIi0M97o8i9/aOZtRqbEnhuTnCQfLdrWYySwkoSb9wzfgv98EOC0FZwPzjPwVAkz8O+cfnZpMA4Pb6cxOvYoLEYV6JJurINTfw23hBPdBhdmOVnULSfdzW0aWxa4N6VQvLdymAxXk+xkHAT8vjtjNI4AmH7OSjyXs2+9IjBJgbuVXEkXllhI0thpJWRbF2/GPwOnvrvCUTt5/CbGv3cOb/Yw6YGgYv5JN6ZDBbj7gmSbWxNgN/FqI8lCE0FyHOF3587Ftz1s8lB9pYxJF1XQjZLkbOfZItv43fz1icRhKKCV2sZVN3PLQt36mx6sG7PDyRd7E2WQvtPM4k2y+D3aLyYRBB6Ipa3M6ia57SoSGNQQHthMwnX9R2LkXeLJOvapPH7NKXFEISallfdHASOKZLnKcd1BhVorw90kHCxuwwWwt+ZTIItXq7xezWmRRGElohXwf0ctN8md5EKEut1BjV4XHPOkmy+77wsxVfRJFjYA43fL2fLJYJQUrC8XecewK9Knkdt0RiU4ZpRSbLFXPawENknSTDfMo37ICc1iiDE93M4NtlKKggvzGZQh7Zmkp1Ee/Kdi6W4v5gE+9zDfbF28xiCUN7PIXBMkX5eNSfTz6AQo24ByfZDkc5CFEeTYJNquU+y9jQThIbw5cF5Dm5V7u1dXxz1MCjFX/Q1ieb8sp2FcIn+/Ov4Z9w3WSsiCEJBy51MDgKq9HPf8ysBBsVoK2NItMjDLISRtpjkijzOfdR9fzTBhxf+4BSDsvt5+cJtDOrJXjGaJPNNbmchnn1NcllTPdxHpwqR6B9exx3kucJ5TrFKPkCHQGZCNUk2ZiULcWoaCdbZzX116lULwYcVfgf7eTBNlXs7RV5oZFCRXvtpBUk2+TXL4N5sI7k+/p37zPUgnOBDakGeq7yfU8edHAY1Gdce+0iwMfUGy3DzBMkVm8F9l/koggD7Oe7tH0blTBeDsnaOt5BgX+SyDO4XJNfZGo37zjUvnCCU9nPQ8hqspATf0jwGdZUciiHBImvcLMPBcBKrYoWX+6F27hKCD6Ojl/fn4Mn7pIKUYFl4V2dQWNOeApLL+U03y3AtjsSyf5PF/ZGbYCP4EMIfZXJPoCmT55R4WGdQWtbcsyTXpXSWwf2Jj8Sa0M39kjvbRjDyOja5OAjkfdJFahj9h8GKg/NTrCSWdbrGMtyrJrGij3H/HJ1ZTTDSljxwMSic51WdGFyAWxdaSKyxP7IMeYkkVsRK7qc106sIRlbHg0xWGO7tvvg2BvAfjyGxrLMMFuHUNw6SquqAxv30dFoZwcju56cYgvN8SgUp4lyrzgC6d08EiTVufYAlMHYvJqkcDRr3k3Z0ahnByAnf9JohSN6ULlJE7CqNAZjZNauMpLLPa2IJPK1nSKwbLu6vwPYvywhGypJe8hwCR5TZzyn8fgn/F8CRxz6SKmWHxgLop6aTWIk13H95L8IIRsaSAy5WGe7tFdMy+W8Apx+SVBX3G1kC4+UokiripYf7b80nyQQjoWNecJ6DptC93XLrGgP8w7ulgKTa14bvuQ8z+zIeiDWTkgmQ59jPh10MvigD//Z6dhgJZbvAIhgNJNaXWTwA2rFJFQTDbVRv93bYrlCe2wrXMcC/XPv4CQk1v51FeGUjqW5l8EBoGX9ZCbCfjzz9zxfJpAr7F7UM8G9GURwJ9cNKjSVITyKpknZ5eCCMjMd2guHU0Uueg779y2RSxoRWjd8A4FkRTjI9mZrDEjSdJKmq7gV4QNy/fWwlwH4+wpTK86jgRgPQPt1KMsVeZhEOVJJUm7w8MHrxfCvBcLH11s9h+4sKUsbiR14GCB48b5FMzs9yWIL0FpKqoZYHSKvb6yMYHra5LlYa9nNyLP2dewFQH00ypdR5WIDahSTVomM8UPrdBU6C4bCklzwHTal7Oz3s/ePXAI2bzpJIXRu8LEBWgpOEilit8YDd/clJMPRGJeSy2rCfU8Fmg3sF8PskHz4uM3yM4zYSKvmewQNm3LzlJBj6e3stqw37OSVPf80Ab5EeRyLZ0liC4nMklL0zmwfOvfPGE4Lh389BX6PSfk6WCRkaA7yFN7WDJHJczWEB2meQUI7n3TwInvSFFgLs53h/PrQiVxkM8Daaa4aVJIo+rnPo86SeJaEeungwtPRzBEPIhv0c+zktXraWAd6h7gZJZJ1psACnU0ioyFYeFHfNeIIhcxZ5jv2c6GoeA7yLf/clkmjRahYgZyMJFZ7GgxMoGtZER56D/qda/ZzGHvYwwDvlzK4kgSo3eDj06Q+qSaayeRoPjvurMwTD9l4N9KdfhJFKzj4w+D0A1kwsJ4Hm57EARfkkk3MKD5b21TiCIWCbU8sQRLU8922s5fcB0I9Hk0Ad13UOfd03SKhbOTxYTVu/Jhi0s5/VMgRZMzWMlDJuJ78fwLpHZSSPY2omCzCzi2T6uo4HTV/1kGDQ+3ktQ5CnquW5bU8Jvx+AnveYBIq6ywKsHEUyRdXz4LnrEwkGxfZZLkNP/jWK3dvJ8eI89wVA4Ho+yRP2GQuwJolkGrVB58FrPDSWAPs5+vlgxRVx3wAYn5WRPOP/5NCXOclBIjnm6DwEGnfHEgxYdWctQ5A/lctz2x0P9xFA3q1yEiciVeeQ5z1oJ5k+WctDIfviWIIhzHPQ1evnzsdHua8A9EPNEiOniUOesX40ybTgGg+JkrQYggGxIc/x/vy/omvc3GcAmZ1dJE7iLo1DnX5sAcmUWMNDIzstn2AAbLNrGYIomOeVm7IYoB/qFpI41geGhC/xkUwt33p4aGSn5hMM4N5+lKEnXb39nOj2MTcD9INncwGJc/uIgIq+xUYiOfd4eIhk/RFNMBT7ObSp188p8p7GAP3imuwjaUZtNXgI/T/27sCvxrv/4/inpEoAmBmDYQZSp8JuuUdVAmgDyLmud2MGRXCzujpAYBMAGQYwI5vZbo1t1v6x3+O+t9+tnRroXOd8Pqf382/w8Or7fV/nuvwxfZLYNPwJIqVo3UVpP+7ndOajTdLRBAYVg+jVOOcnijXZXxyGesVviE2/n3EjWPRz8groeNv7OXueIx1Oz+mNeEVEM0dliTU9rkO/KZvEpKOXXURM0Xf18tIoadgZEM/n/7H5KV4ZUaj6llizeR7025EuJh37CRF0+G6qvCTaxJ63weuQPU9YfwZEr+F+ilhzoATq1dSJSVmfNyKCmh+myEuhpK01IJ7P/6v+RhBEr2H2WwlizMW10G9ghVgUWFSCSGpYdExeAh3n+Zz7+f8rfbsMRK/lqx5iTNMwD+rNqxKLSgc+QUQ1TEkW4n7O8/kr+P68C6LXEhq+SYy5dR3qzUgVk8Y3I7KaR+TKC9Dm//Wc2PPNI/C6iPKPijEL8xxoN/ukmNS1ABE2+53OQs9VNawGxJ7/qfd1vC6iQ18niTFbi6FdwxelYlHKTkSYVzY8U+g5qvg8HPfzZzKXOHhtRD98I8ZMuudCuca8JrHo+E1EXOHoTPlbtHnoI/yJeD7f2O80Xh9R7acLxZZNS4PQbkUXsahyqIOIK9t6XP4GdRp6BhTO66jnc0m94aAdiGaPEVsS9pdBOXfOATHpxyAizt01JEnaRFVbd3mgcGfezpEOKWFwGdqDyNnbTWxJXwntSq6JSVsKEXnu6cEbpA1UNfQHtEI1b2+QjqnHB2gfotq3E8WUnKfQzjmbJBb1nAEfBE8PzhF6uf2cznTYnleOLkc7Ea3JEFsONEC75SfEovQd8IN3+r1NQmFytrLnPJ9H+O9pokMjssSUizuh3Q/9xKLk7fDHb2M6CYWdz8+AeD5/Jmebg3Yjun5UTOn0jgPlQluzxaCmkfCH99vASmmBqoYUgHg+b6FuDtqP6OC8DWLKgTPQbkmKWDTYgU8K9rcoOuV8UYAWiD1PWlKOCCC63ldMSd8H7WZkiEX9a+CXOQOa5E+0iedz9jzMgWpEApG7LlksKR3lQLmDfcWiPqvhF+f6h4lC/7V5yBkQ9/OWcqeGEBFEZ8aKKd/shnZDmsSgjOXwsej9E4W4n/N83pbHvyEyiJyzKWLJwg9cKDc1UwxauA8+yv+9Qkg2cD9nz8OlnkWkEJU9zhZDsrfNgnKn6sWgxKkOfJT/I4vO/Zz37a1lX2lGxBDtuyqW9DkD5Wb3FosW1cJHjav7VUgHt4H7eRtqa77YIB1YylpEDtHsDxPEkKvLQ9DtyaBSMWhQM/zk7hlbIR3a5rcLQK3UDNksHVj2/jJEDlFobaoYUnltFXQ7uC4gBq3/Db5y7x0olQ4sZ/AcEHseJnVvIzou4mdUt8yGbo3nc8Wg+fku/DXjQLZ0WFlvs+fseWtjTiOSiJxpXcSQtB0uVHPz68Sg1BkO/OWtGLdROqicNu7biT0/97mHiCJqeEMMyRruQLea/WJQp52N8FnoyK1s6ZCS2HP2vC0fNoMosrwL9WLIgdPQzXkgBiX+YxV8N7dPtnRAGwYXgNjzVtLuuyCKsMLH2WJHt7XQzb1wVewJDC+C/+aOl46nE/dz9rwt2T82gyjS3H25Ykfi+w5Uc+bOF3uy3zgM/zUu3yIdzaZBBSD2vLXkCyCKvJrHCWLHG7ugmrPrsRh0shlR4H1yUjqWDew5e96mhPXNIIo850Km2DFxehCqBYeKQelnEA3epQkJ0oHkvFeNNrDnSdLRVeU1gijynDljxY6mqSGoFpyXK/YsnIuoWLW3TjqOrEHVIJ7P2zKuuhFEPmiclylmJAwsg26Xuok9nc8iOg4tm8T9vEPzTg9lz2XDvBCIfJHfR+yYuNuDamcmiD0bRiFKgjt6cT/vyGZvrRLqszoEIl8ER20WM5L+dQiquf3FnsB7iJrPT0hHkPNWNaiVstFVQjmjXBD5ZHUvMSPw1iro9s4msecbRM+FHhL/KsdcB/F83rae90Dkm+GVYsb8M9Btaa7Y07sGUVOS113iXdaYaoSj2tPs+X9kDXNB5JtTXcWM+h3QbWWa2HPiNqLn4NIFEt9yxsxpRDhiz/+QPgNE/ikcki1WbHrHhWrNE8SermsRTb8siPOe78bf4H07lY5pAJF/nJ2pYsbjBqjWsL9UzFn4i4soavw1nfs5z+cd1NW1IRD56MwbYkbP81Bt1t2AmHP8fQfRNHNdF+7nHYrHnv+/fr81gshHoSWdxYrMdS40C+7dJOZUXAshqornpcXvfo6/xZ5TzroQiHyVf0vMGFIO1e51FXsGBRFd5V+ncT/nft4Bjd8DIn+FRmwSK77Md6HZnDtiT/9mRNmhxfUSfyoHXsff4/mcKt8Jgchna7qLFQv3utCsbLDYc+cyoq34aarEm8o3d4Namc33w/3PxE9A5LeDYwJiRPbiQ9DMmyf2TDqCaAs1vJ8i8WXTwGoXYcibPfy4/IGy3wiByHdrk8WKyaehmTMtWcxZsNNFtLlFD4/FWc+/dRGOmtnzZ3LzQOS/mltiRbdva6HZ3F5iTvIFF9HXsCg5rvbzfBfEnj/PhDMg8l/5zUQxYvO+EDT7eL2YE1gSRAwUj8qNo57vdkG8b3+ewKgSEPkvtKK7GNF0bRU08waJPQ9CiIXmkZncz9nzDiNtjYsoICr7SKzoWwLNvCmVYs7QBsRE2buZ3M87yn07DaxBNBAF85LFiG75UG1qipjz4S7ERtm142Jf037u5601sud/lXk2hKggmjNOjEieCtW+mijm3KlGjJQNrxLrmgZcdhGGPPacb4mjWHHMvC2uaagHzQomiDnfr0aszB6WJLZ12v8tiPv5i5QOCyFKiJZ3EyMOFEIzp5+YU38bMVMzdLNY1mnAZRD38xdK3+eCKEpWPd7IT6hGgvdFk1iTsxyxs2toju39HMSev1jfMhBFzfYqseHqEg+KeTePizWJebWInZovOlnezxGOvDL2PNzmbSCKnt3dxYhrHjTbmyLWBO6WIIZ++KiT2JQ14FuEo8bWP16grqtBFD1PBpeKDY8/hmaPuoo1FUOeIIbcgvc2iUWVb+R7CEeF1zLlr6j0wwYQRY+7I1Ns6DEXmpWNF2uy+x9GLDUWjKkUexL77/EQjsrY89Y2XKgFURR9e0ts2PCpA8Uafi4Va/o0I7bmDEw02PPVoJc6n9Oky7UgiqLglASxYdRMKDbrQUCs6X4asRXcvT9RbKnsz/v2Nsxmz9syugFE0dR4I11suHIaigV3ZIk19d8i1q4PaDLW85Ug3re/nNxo3yoSFawXG3rshmLOTwvFmuS9iLn8NxJt7ecg3re/pFsrQRRd7shOYsLxD6CYe7lOrMmcitjL71/K/Twez+eUPToEoijbuUBMqHxwEHo5P1wRazY/hAKrr1SIDU2/54O4n7+sLhcaQRRlxX3FhNI3iqBY4VCxJmuYi9jzTv2YKBY0XVkNeunzOfX5AUTR5j3cICb0qoFizmKxJjAGKtzrFxD9Eq/cg27sOf9eJvrpnJiQ9hUU8+5vEGt+dKHC7W+yRbvAj6cQjhr5PNzfSr0Eougr65cgFmQ+daHYsotiza0QVHBXHCgV3Zp+XIlw5Da/kynUtt5lIIq+8psBsaB0jAfF1hwVa+pqoIO7pm8p93N7mkfkCrUtcK0ERNHnrEkTE74sg2LVB8SannugxdxbpdzPrTn8bq7Q38i85IEoBj7uJyb0nAvFDv0s1kz8BGosP5nA/dwUlz1/nt7VLohiIPQgQSxIXepCr9C1jWJMl2lQ4+AHdQmiU+LY1WiN+/m7nYX+1rAGEMWCt6OLWJC4yIFe7uLjYkzKVChyacJG0aip3ykP4aj5eedzyrzggCgm5hwQEwbNhF7u/TQx5vhiB3q4e48miD6Bfj85eDXcz+nkPRdEMREaHRAL+l6GYp/1EGMqR7hQJLhjUoJoExjLnnM/f3UfhUAUI3n1YkH381CsoLdYM9SBJqv+2VPhfu7gFXE/p8x5IIqVj+vEgqppLvQKHhBrxrhQxdt3Qtt+vsdBGGos5Pn8BXpOB1GsOPsrxIKnLhR7KyDG9G+GLrWfZ4giidzP23KY75N5kX7lIIqZ7cfFgjGzodiozWLMgWooE5qWwf1cN4/n8xfaMMIDUczkdxELtnwMxabm2nsUF9ocvNBNlAgcOBVCGHILR3SW56P6SyCKnbL1CWJA6moHel1aKMb0PA9tvPL73USFxPX3gmiFPZ9yVegFJpSBKHZm3Q2IATk7HOh1vYsY03WZA3Ualy4QBQLrb7PnrTWw5y8WGFICotgJLb8qBlQ+KIdezd+LMSmfQiFnaleJucA37HlrbuHIq0IvkrOvEUQxdHmLGFAxpgh6He6bILZs+MWFQqt+6RL7/Zz37bxvf13d8kEUS4VDxII+DdDrycBSMWaeC41Kfk3jfs6em9V/F4hiKbSkUgzo9gh6lbwbEGO2NUKlWevOcT/nfm7Uv++WgyiW3A8migH1O6HXoe2VYszQBuhUPq9eYqaiL3veBu7nL+nYjRCIYsn9bb0YkHkTetVe2iTGDKyBUrPmLZQYCfSdEYRZvG/n6x2IglsTRL+moQ7Ucn5KFmP6FUCr4psLY9ZzvD72nMY0gCjGlhwTA640Qq/8HmLM+OtQq3hxisRA4MAKvD7u57Tp/RCIYmzGCTFgSwH0mtNHjOm5x4VaTx4kx2I/X+Pi9XE/p643QBRr5d+IAT0+caFWzRtiTPptF3odvns1+vftP7loB96308lqEMWaNzpL9Etd6kCtwq1izLEjLhQrXJQb9Z6jNfZ8VLLQyxrggCjm8nJFv053PagVeirGbDgP1cpGXY1uz1eAWilmz19B0iIPRDGXf1EM2BqCWqGliWJL094QVCsbkSlRU3HnCKiVhm3JQi8tdS2IYq/slhgwoAxqufuOiS2J90PQrebd4xIlFV+u8NA+vG+njNMgir3irRWi35186HWpq9gS2F4O5WZHq+iBO7c9tA97Ttm/F4Eo9hrzKkW/ntM9qHVkvtgSeDgL2tUMPx6dnh/xEI4aRh2TV0BN22aCKPbcGWkmFioPWrkrb4ktFdeKoN6ZrUniu4px7HkbSrifv6INO4MgUqD6lugXyPOg1qPHYkvp4CfQ79GQTlHYzxGO3MJtx+SV0ILLjSBSoGywGHC3FmoV/yy2ZO8/DAMefZHD/Zz7uQkHfgCRBs7NBNFvUBnUCg0VWxIeN8OCgrc3i48quJ9zP4+QrYdBpIEz7Zjot74AajlTEsWUhC+bYcLHg3LEN6W35npojT1PlldEFUsaQaSBM72X6Pf9t9Dru+NiS91s2LD7rUrxScWtFbUIQ7XFD4/Jq6KFy1wQqVAwVvQ7dgpquWdTxZYep2FE9ZuV7HkUFS5KlldGdTM8EKkQelv0y9nZCLVudBVbupgJulf9ZpY/PZ/OnrfW8DBFXh1NPgMiHdy7SaJe1rpVUGv6CbEldTfMyH+jUiKu9Ev2vLXaWez56xkeApES07qIeonvlECt63Viy7HpsONU/0SJsNI+R0A8n0fK8a9dECmxp5eoVzGwCGoVfym2XF0GQ1aPDUS652tqEYZqC9nz19R1nwciJWrHiXoJfZ9ArdBjsaXzfRjitS56e/fzEIjn84ipOwUiNcYERL3vD0Mtd0yFmFK13YEh7k/rA5E8n593EY6KX7vn9M1BaEHkPkwS9dKvQy1ndJaYsvmuC0vcFQcqJEJKx09HBPF8ToFBLtQg2pcs6qXuhFretiQxZdO7sMW5/WWpRETF+OkuwlE79nM6/r4LNYiuXxT1cn+FXvMyxZSmITDGW9GnIjLn87kuIonnc0rdAT2ImreIeptHQa+8ZDEl8DOsCc0dXxqJnn/mIqK4n1O3auhB9GRgqWgXGOxCrZ2pYsrG/jDH/Wx8dvt7fsRFGPJmPUiR10fji6AHUcmigKj3uwu1bqeJLQccmONO750t7VK6hft5Gwrb1XOq2F8CPYhqp1WKencOQa1H6WLLeBgU+mxCdvt6zvv21ryGu6nSDtQ08hD0IPLW5Ip6E65DreYMsaWuGQY1flX3b3lt2eOXhxCOSu4ulPagnKUMuiq0MkPU6zkdah3uLbb0qoZFzt6jCfKasnt/FkI4Km7v+ZyO34YmRB/3FfUW/BNqPTmQIKac2AOT3J3fy+spPTk3hHBU2O7zOU3cDU2Iyt4T9VKXOtCq6MNSMaXHCtjk7T3xuvt5COGI+3kEfFkATYhqH4p6mV8rDvrbATFl4mcwKrTjdYqevYX7eRuKI3A+p5/LoAlR7dlK0S4wKgitZr6bKKYs2AmrQvsy5FVln+T31VrzSt5PlXajUSVQhehGvag3OgitDi5uElPSd8Bw0bvLq8mecD4EX3A/p9KltVCF6HxPUW/MTL1BP5slppy74MKsg9MmvuLz7bxv920/p8wbLlQhWt1H1LvyCFoFl20SU1LzPNhVfmHiK/X8qyB8wv2cFiyHLkSnfxf1bq10oVTjmg1iSsqvsOxgXrdXuG//hD1vjft5pNTNgC5EjYNFvUlHoNapq2LK1XkuLFu19KK8nI11n7HnrT15mioRQet3Qxci591S0W7iJy6UclefE1MyF8O2WWe7yEs5sRet0JPF9RIZNLAZuhC5i4+LdmlroVZ+dzEl6SGMK1mXJi9hwb+CCEcl7HnkDA9BFyI3r1606/y5A62+nS+mbBrl2L80PiYvlDp1FXzEnlPiXWhDdGmiaJeY50CrOVvElKZ3QrCubGSmvEDu02KEo6LFqRIpdHWJB2WI9swX9ba70Kqgr5hSMdqDeTVv58hzbb5WhnDUEMnzOXWZ5kIZotlbRL2HDrQ6c0VsGRKEfWf2J8pzlE6e48JXvG+nHp9AG6Lab0S94Q3Qqma/2PKRA/tq99yS5zg6vRb+Ys+p7hS0IXL3Z4t275VBq7KPxJYxtYgDzr4F8rfS7gcRhp5wP4+wOzVQh2hopWg3eZcLpRqGiS37Q4gHhx5myt/IebcIfuPvz+nHENQhepgk2vUtgFYlU8SWycWIC80DK1761f9UsjhNIooSBrpQh+jXXNFuwm5oFXoqtlxpRlwI3TsqbVqwLAS/cT+nytHQh+ifKaJdRj60Cq0TW9b/gDix/bi0oWl4CeivZn1dLxFGxx84UIfoXppol74aai3dKKb0rUac+K2/tGHCDA/0F6vyukqkUfISD+oQ1XQV7VJOuVDK+TRHTLmVj3ixL11ayfyuEfQXB/f2lIij1GnQh6i5p2hXNQNaeftyxZQtpxAvyt+ulDDZY0+D/sKdcTJBIo66LIc+RIf7iHabPvOglPvPhWLKhNuIG/cyJEzmDRctUbC6X6lEHi1YDX2InjzOFuU67QhBKWfvOTFl/nTEjZIRTfJXk2tAf1E4pJP4gLrPhj5EDQNLRbmspeXQ6lK6mHJiOeLHygz5i9x/OWiJyv+RIn6go0XQh6h4aECUq5x3EEq5n3QTUyZeQvyYuShRWuo3By1RcHkP8QWNK4E+RCXbEkW5xLslUMo9nyGmdNvrIH6smCQtdJ4XREu0a/1G8QOVTi6BPkQH/9EkygXenQmtpvcSU7qudRA/nBEV8kyf62iJ3O+qxBcUeK8E+hAFL2SJcoGhxdBqxVExJf2Giziyd6L8T84ItETungniD0ocdhD6EAUvdRLlKt4qglLuT73FlC47EE8a+sv/XJyLlqh8WJb4gyqnMOgaUeOaTaJc6YdPoNWePmJK2j7EE3d7rvxp4zcNaIFCH3QXn1CnxQy6RuT8dFWUy/7xCbTKvyOm1E9DXNk1Sf7U6eYqtEANo8UvlDOVQdeI3D1dRC39Z6/dB8SU1E89xJOSrYnyh/Q9tXiGvNsTxS+0+fNG6EPk5vcQ7e4UQquPH4spCz91EE9Ce4/LHwbUoAUqHhkQv1DVJyEoRPTtUdFuSyG02tVfTDkWZy9T8+bMl/8qXdeIFmh3hviGjv8UgkJE1eNFu7rD0Gr2h2LK1fsO4krzR/Jf9ZdctEDbq8Q3lHwZGhEVfCPa9WqGVoffFFNy81zEFSevUv5j/GoXz1Dt5GzxDZ37FhoRnfldtOvRDK1mviWmZC6Nt6DP7SH/MegJWqAZGeIf6rYbGhHVfCjaLSiEVqHBYkrVWdjXxmOJTXc9PEPed53FP5QxBxoRzf5ZtEvfBa1qh4gpSb84iC/OVhGRLtNcPEOhn8VHNP9jaERUNki063IdWtWOtvZCDAdx5rsNInL0J7RAe7aIj2jCb9CIqHCIaHduD7QKDhNTOi1xEV+8z9NFpG8hniF33znxEY0vgEZEDfqTVL8GWjnviCmVSxzEmVN1IvJhCM+Qe7NCfETjfoBGRLNGiHapn0ErZ0SCWJK4zkGcObRepHK0i2eo7D3xE43dBY2IyreJdqkfQCtnVEAsqfiHizgTelOk81MH/0Pu7nHiJ/r9NDQict8X7VLWQitvUZNYsnGeizjjbs2S+n/hGXLv9RRi0KkDcreLdimfQyvnQScx5esQ4s2DTOk6F8+QMz1F/ET9aqAS0dlsUS75ArRynm4WU256iDe/pMjE1XiGatcmip+o7y5oROTc3yTKXV0Krdzvjosp3yHu7O0iPebgGVq1LiB+oltnoBGRNy1XlMv9FVo58zLFlMWIOyu6yYlmPEOznlaIn2jLI2hE5NyoF+U6b4da666KKXc9xJvr3WV+EZ6hWdsqhPimOOqAnJ3polzmTRdKeVOPiSkPQ4g3ZzKkdxGeoeJ3K4T4LnfqgNzlPUS5qqcelHLPpoop20KINw295FYRnqGG0aVC/NoadUTT54tySQ+hlZtXL6ZMCSHeFJ2UPkV4hhq2loqfqFs1VCKa0VuU2zwKWnn/ShNTRjiIN0V9pK4IxCv36Om6GyoR/aQ+6EnbPCjl3U8TU0bGYdB7S89CPEMzH1aIn+gig64U3Z4gylU91Bv0vDQxZVRcbugZj/AMld8MiJ/o3LfQiMhbUSfKVd2FVo61DX1bXD7l3j0fz1BoakD8RGkMulK05qj+p9wRIXzK/WFjPP4OvdsKPEOOz69+pXoGXSk6MkmUO77Yg1LOLwvFlLu1iDczusnFvSB+nCV6Fl6GSkTTe+l/sQy08qamiClPaxFvlqdLylQQP58aPSkMulI0t6col/m1C62WJIspi2sRb+6nStUoD/9D7u5x4idKZtCVovMnRLnMf7hQylt3lZ9PjS33/c4S+AgtUM3P4ifKzIdGRO7yDP0fZ9Eb9O25ElsM+ugskSsOnqHQXfETHT/VCIWI3K+6iXK5S6DWP3LFlHlBxJnQAH6fOpx3IUV8RFVHglCIyNP/tbXcqdDKm5cplpTOcxBnig+IyPfT8Qx5R46Kj6jqqxAUInLXpolyV89CK+fr42JJYHsIcWZlbxFZuBQtUGF/8RElrQ1BISJ3x0JRLvkCtHK/qxJLEtc5iDPLuolI9pQQniF3ZCfxD22eVguNiKblinIp+6CVuzhJLKlc4iC+hL6uEhEZUINnyPtqgfiHNiwth0JEzoUqUW7hTmjlPN0slnT61UV8CW2V/zg6w8MzVDxW/EM5S8qhEJFzP0uUq/8MWjnv54glG6Y6iC+7v5H/uLrWRQt0s0p8Q51uroJCRO7ZClEubQW0ch5WiiVJv3iIK+75ifIf2U/L0QJ920N8Q1l3D0Ejol9Fu3MroZUzKiCWVJ1FfAleyJL/GrsLLVDx8ArxCzWNWAWFiEKLRbuLH0Or4LtiSuZSF3HlyTD5Q+r0IJ6h4PmL4hdKHDoLChGVjxLt0mdDK/eamNJ5aRBxZc5R+UPltoNogco+Er9QYEwJFCJqGCbaTWyGVo2jxZSreQ7iyr4q+VOfZrRAzufnxCdUOrkEChGVDRLtTjRDq+AXYkryfRfxpGRQQP5UvxYtUeFbFeIP2ri+BAoR1QwQ7Y4qDvogMeXYBQfx5OPv5f81DW1ES3S+p/iE+pRAIaJHj0W7k4XQquFnMWXhpw7iiDc1Wf6n7h5aosaHm8UfdLQIChEV3BHlNo4rhFZlA8SU1GmIJ+UDEuR/ch7UoiUqGLdRfEE9GqAQ0e7eolz2lSfQqmaymFI/DXEktKybtHBrNVoiZ+cC8QV1uw59iNz8DFGu9M0n0OrRj2JK2j4P8WPW1mxpYcO6IFqiogfHxQ90cTr0IXL3pIlyFYOLoFX1ejGlyw7Ekekn5C8OPEJL5D36sFR8QPU3oBDR7SpRLjC8BFpdHiemdP2ni7gxa1tA/qIqbxVaosbpdeIDOnYW+hB5lzqJcomjSqDV6j5iSredLuKFd3mShBlfDfqL4LJeEnmU+Z0LdYjK8ypFuabvyqGUe++kmJLxiYd4cWhRpYTZPNIF/cWqHT4UnTZPcaAOUfl3TaJc5dSD0Op2nZjSa66LeHGkh7TSc3kQ9BerPu8pkUZNQ12oQzRzRECUy/o0CKW86b3ElLoViBcz3wtIK9kfNYP+6tC+7yXC6N9jPKhDVPR2hSi36YMQlHKXdxdTTt5DnAhNuyhtqP/UQTie0U9IhNHvQahD9OSNUlFu822otfOimHIrH3Gi4Iq0adxuhKFV01j0SOt7GOoQHb6TIMol33OglHsjRZSK89yt+kemtCnx7QaEoZmfsugRdjIf6hAVfi/adV3pQinn8+NiyvpHiAuhFT3lb6QsQTg6NC1DIol6zoU6RLvSRbtel/UG/X6TmPLjbMSF0/1L5e/0+iyEVlj0ExJB1PWGA22IpteLduPnQKvas2LL5GLEA2dblfyt7MkFLnzFotPCpQ60IZqWLNqNfQStQl+LLQNCiAc3FshzVI0oRDg69GmGRAwl3fSgDdHXmfojVAOtyh+KLT83Ig6s7CvPlbyYRW+tnDt6BP17WwjKELkjckS7L8qgVdE7YstHDsxrPP12kzzfwpvF8BOfjKNhtdCG6KOAaDdiFrRqHiK2DHFhXsOoJHmRc0tmIhyVR+7Xa/RmGbQhuiLqLQ5Bq9ljxJSK0Q6sq/1HirxY17xy+IdPxtGB61CGqKGPaPfvqR60qpkspjS948A499MF8jIWXGDRWzt0oYdEBB29DWWIVk8S7XL+5UCrR+vFlE1TXNgW+myCvJwF/2LRWytn0SMk/RMoQ7S3m2iXssOFVgV9xJSkhzBuxoEEeUkT7zvwCYtOVTsaoQvR2VTRbsElF1rtrhNTMp+6MO1Uv2x5ad15696Gmf/KkPaj7F+DUIXIeT9JtOs13YVWlzPElKvzXBjWuOdKQF7BxGksemsHI3JGp5GzoApRaLio12c1tHJWnxNTUn6FYU5+/4C8komfloN8KTq9VQYiVRrHiHo/PoJW3r1MMSV1Kezy8t8IyCvqfsEB+VF0OnAGRKr8NlbU+7kYWrnLc8SUtAuw6/qHAWmNO3psdnQ6UQ0iVW5PEPW2hqBV8F+dxJT0HTBr9/4maS1GOzrP6HT1lAciTfami3aBUVBr1bxKMWXBThjlVQ/Mktcy8fMQqHXRuwu1y4bPa0GkiJe3WbQ7ftOFViWjEsWUiZ/BqIIxTfKaMqY5oHCr7ncXao/Ku4dApIi32MJzXC60KhoaEFN6rIBNBe9VymvrMS0ECleS112oHQLvlYBIkeYvRL0F/4RaxftLxZSeq2HSb4OypB267ysHhXHbWXTqWwQiPbxH/US9ntOhVkO/bDFl0iMY5O56e5NI+4oeBIVx23frThnNIFIkf76o17saahWOF1smzIQ93q4vcqSdMqa1Ljqtas8ZnS4eAZEiM46JendmQa3D34stfRzYUzMkR1rik3EqdnQ6thREiuyoFPXegF41C8SWsS6s8WqGbpYI6H6jHBTGLXn9W3faMBJEepQsCoh2TUOg154uYkrphy6MaZw9OkkioseNECiCOzrtrwWRGk8MPKRd9QB6fZUqpgQGwZqya1USISf2hUCR+z063SkDkRrNJ0W95LMu1LpwTEzJGg1jyt45LhHTs82ic0efKPRaeh0BkRrXL4p69cuh1/bOYkrOFNhSOCJTIijjn+WgcDOXdhN6Hec+dUGkxb5kUa9rAdRyt20WU5IWw5TDU3KltQjv6LTq9YpOGxa7INLiQZKod7QQeg1pElMyp8KSwlG5EmEZ+0Kg1kWfKPQahjkgUsJ9KyDaJax/ArXcARvFlNzPYUjxoqsScT3bOKNTyWsVnfqfAZESB8eJehVvFUGt0DdiS/JXsKNoUbL4oOeyEKh10bsJvbK62yBS4t73ol7ilBKoNXu82JLyE6xwS+6miC8yWPQI7ei0cJkLIh3up4l6WVPLodaeSWJL/Q8wwm14ulBa8+3WnVad7Sb0ikqXeCBSwR3VSdTbsNyBVu4n3cWWBadhRMnNevHN9yx6ZHZ0GlIIIhVCY0S/tJXQ69MuYsv3VoJ+qFXPfd/RqeSXBUKvZlwBiFS4Pk70m1ANvZYkiy1bZhvp+ddp4qsTez1QuFVLugq9kvR8EGngfdVd9Ou/C2o5728QUzYeKIMFJdvPic96rQW1u+i0YZkDIgWcvCrRb2sh1Aq+s1FMyZ5cCANmrksX381fVgsKV7JkgdAraNo2C0QKeKPEgJu1UCs0WGwpHXMYBkztKv5L6LUTrVDxK53RKbt/EYgUODNZ9Nv8aQhqlX0otlQMfQL9zi6QaEj4vo0dnUpeqeiUUQMiBVZniH7pl6BX9TdiS8XIYmhXvnSBREmvZR6oXTs61e91QRRztR9sFv0mzIBeP50UWwKLD/Lj3C1M2hsCteeMTlUPXRDF3KwHAdFv7MdQy/ssQ2wJTA1CN/dCD4mehKMfOKBwRa9QdBoQBFHMHZ6cLfq9Vw613H/Wiy2J+4JQrXFfT4mmhPkfhECtz+jp8pJoy8cgirldGWLAuyGoFcrbJLZULm+EZu6OXhJdCUd3OqBwq176h4O0YC2IYu5SiujXeZ4LtWpvijGdpztQ7NDaSRJt/67b64LCzdqeLi+Fqr5zQBRjzoPNol/XHdCrYbgYk7bCgV4Hl9VJ9G08eskDhSvaflFeCr0dAlGMBd/IFv2O7oFeNfvFmO73oJd3qS5BWonKjn4QFG7WSxad7uSDKMZ2HxUD+h6CXh+PE2Mm5DvQyvvkpMRGwtG9DijcwZcrOnWJ+WMYRBfOiX4Vb9VCr/yeYsyBOdCqcflJiZV/111yQOFmvtSOTonbQyCKKWdkpeiXtMiDWt69hWLMG2eg1fnxEjvZdZ94oNfb0em9MhDFVOEbYkDKBejlfrVJjBlcBqXm9smWGMo+urwcFG7myxSd6naDKJbcNXViQPoe6HVwaqUYM+IgVAoeuZUtMbWx7gMH1HpH7yIvQpnnPRDFUO2Fq2LApELoVTIlIMYsDkIjZ824jRJjGye0UXQqmXdRXoCa3j8EohgKjRIDSlV/a7j4rQqxpWlJEBrdHpctrcRgRw+BwhXN6yLPR9lXnoAohn57LAYkvjMTeh3+ZqPYcvW+C32cewdKRYHso8uDoDBe0bxz8nzUbTeIYid4+6IYsGnpQehVNl+M6XID+rj31leIChsnfNK66LTqRWd0ujo1CKKYCU5NFAOuzoBiBRfFmB6fQJ3g6rGlokT2ya9CoHAlX3eR56HAe0EQxUzhm6ViwPxqKLY8VYypWwF1Vv5YIWpk927j1p2KX3BGpy0FIIqZR93Fgsk1UOyXXDHmznUo4+Rr6rlI9oTPWhWd3Bfs6HRxGohiZlquWDBlJvRyp2wQYx7XQBf3ev9EaY07uq0dnRJHhUAUI+4XTWJA5X0o5oypEGP2h6CKc31yoiiTfZJFN7Sj8zKRaPZ4sSD9Kxd6BQ/ww83tNOfDRFEne8tnIVC4oq/T5G9Rj+UgipG1XcWCPqtd6DVnghiT+I4DRbw5A5pEodKTc0OgMG7xd2nydyhxiQeimAiN7CQWvFkGxZZ3F2OSHnhQ5OP9laJS9snlIVC4kucUnQaeBlFMzL4iFiSMDEGxvHoxJnmdAzW8337OEqWyt7Dor1Z0mpjvgSgGgpcmigXJS6CY9zRJjEn7F/T4YcwmUau0rR2dGv626LQprxxEMeDeTBQLun8AxZzhYs2CnVDj9HubpDXVOzoFi2+mSZuo4uciEMXAmQ/FhD6/QbGi/WJNxm0oEdw1OEda07Wju6CXvnWnjAIQxcCMBWLCgBAU+/aAWHP0DHRwdr29QZTLHn/eBb1s0Sk5D9FHVPtLk1iQtA2KudPnizXja6FC7ewhVaJeaZ/pLugld3QKvBVE1BEVfpgtFtTfgGLuP8+JNWOhQm3Z0ONiQMX41kWnYMN39dIGqstH1BHlp4sJPXZBMSevkxhTsd/V0fPRx8WE0vFzXVAYt+RpvbRGyUsaEW1E3yWJBdmPi6FY6KlYUzkECng1wzPFiNI+n7mgcG0XnQbNQpQRlTxOEAuaRh6CYmVvizUbRkGBsmudxYyKPnNDoHBP2io61a1AlBGdnygmbF5WC8UKxoo1x7cj5hoPj8gVQyrGr6kFhXuyOFUo3IazIUQVkbNts5jQ9XIj9PLyT4g1V3cg1tzCEVfFlNI+01sXnYraOKPTmNmIKqKax2LD+jNQzDnSWaxJPYUY85pHJYsxpbfmohUqWdyq6DRxJaKJyFm2QGy41gDFQnmVYk2304ixwocLxZyKL4/UgsI9aVV0yvp1FaKIKLSoQkxoWhqCYrPeCYg1vZsRW0UPUsWgilszWhedGsJ3dMoeW4goIrp+R2zouhyaFU7OFmOyH5chltyip6niF+7oCnZ0SpuO6CFy12aKDeuvQ7Pmo2JN6eCG2Pb863ppzcqO7oHClYT9hUadrrmIGqInX5SKDVtD0Cz/nFgT2DYLMfTkH+liVsWdNR4oXMPdVGmJxj9C1BBV9xAbMre70OzTZLEm8ZeDiJ1ZS9LFsMCd2x4ojFd4d6G0QPV5LqKFaEmV2JCxHKpt2yzWZH0QQsyU/JIuplV82cYZnYr/WnR6O4goIZp1ZaPY8M0TqPZzhVizcIWDWCmZ2lWMqxg3Ha1QcYxu3fn6V6Lz3cSGxCEONJt1R8zpscdFjJSc7SbmBfryjP6iHZ1y1jmICqLQO1liQ/JUF5qt7iXm9LmOGDmUN1H8xx1dwY5O/c8gKojyb4kR3fKh2r50/k/z0so/nShxoeLLFaDn7uh0bLmDKCAK/XJVjOhbDNVudhZz3i5DTJRP6y5xomIcb92fX3SqGFqMKCCq+VmMaLp2EKoNzxZzFtUiFg5Oy5C4ETjQxq07Fb+fKn+ijOvwH5E3/aIYkfTPWmjWMEDMKV0SiknPb/SUOBLo+5MLClf48JjQH6q+g/+IikdViBHddzdCsz3jxZzO911E36FlPSWuBMbNAIXzGh6mCP2hbxl8R1RwVKwYMBuaOTsXiDnpyxB9zrLvJc4EDqwBhaud9eDPolOXT4PwG9HZKjGi9OtaaOYtzRFzes1F1IX2HpW4E+i7Aq3Q/5/RKXvwLPiM6Em/BDEi7YMgNDs4Uuy5lY9ocz84KnEo0PdeIyhc4Z9Fp+/nBuErouCOLmJF3+tQbdcbYs+V04iyxs/qJC4FDtwLgsI1LEoREaGKu7XwFVFoULZYMSwE1fKPij3vIcpCyydslPgUWH+7ddGp+I+i05Zvg/AT0fleYsXVXx1o1ngkWczJHu4gqpzzWyRuBdbPCILCFT9MERHakBeEj4hCD5rEil5HoFpwaZOYk/TAQTQ508f/W+JX4vpTQVCbv0en7B/L4COiy3fEjB/LoVrR1goxJ+VXRFNohc89V7Cju6BwDduOiVDqJ/APUej+BrFiw0gPqjUf2CjmdN3hIHqCK/pki78U7OguKExtyaJkocT3HPiGaPbjBLEibRl0OzNR7Mk4EtXz+Z1SiXeBsfccUFtPxlGPufAN0bJjYkbdbOj2VYrYM+EHRE3tvb6lEv+a+u1xQOHKtvGMLpXXQvAJ0cEBFWJFYPAh6La4SuzpG0S0uKv7VkhHEBjbRtGpcBSLLr1nwCdEXy0QM6qmNUK3twJiTsXPLqLE2XOgQjqGQL+fHFAYt4FFl003Q/AFUePQJjGjxxzoNvNLsSdnhIvocFaPDUhHkdhW0amYRZdx1fADkXPkqJiR8FYzdPupp9iT+SuiozH/caL4T/OOTm4hi151wQNRB3+pjCSeDUI1d2m92JOyHFER2v1jonQkif1Wg8K5DR3+ybjsx2Ugijxv5Xixo/t06FY7oknsubgL0eDm90+UjiXQ7x6ojR39qnRsyftAFHnl2zuJHR+ehm6z9otBE5oRBaHLk5uko2m6cgqtUMPIq9KhZfcvBFHE/bZF7Gh6PwTdTm0Re7J/L4T/aqsHZIl0wKKvBoULFU65Kh1al2m1IIq0dUliR7e1DlRzb3QReyq2FsN3XsGATdIRJT5eCQp3sLCjn9HfLARRhO3qI4YcqIFu7vZEsSfxZjn85n78ZpZ0TIE2bt3J7ehFv7jDA1FkzcsVOyqHudDt8BAxKMv/iw93zphN0gJ3dGro4Lfug8pAFFG/rRdD0vZBueo7YtCx2/CZWzAoSaQDF30l/op4Rj+33AFRBLlLcsWQ3qehm3u7ixj0fT58dvqjJOnImvrn4y+IRS997zCIIqh6rBjSNGwVdAtOqxSDDhTAXz8M3iwdW6D/HvwFsehpX4EoctxfqsSQq181QreiaxVi0Fuz4atHQ5Kko2sKKzrx9+gVA4pAFCm1j26JJVt+gHLNBxLEoG0e/FQzOlMoq61bdyocmSsd1rlpDogiZNW8JDEke0oRlCtYIAYFfnXgo+Z3c4X+u6N7oDBO2budpcN6YzaIImROb7Ekea8H5XZcFYOOTXPhn9kjOgv9saOv9EBh3I78B1/q/RCIIuNhlVjyzW4Pyo3MEYN6fOLCN7On5Ar9ofLDfLRChztw0SefAVFEnDoplpROCUG50O//FoPG74FvZm87Jv+POu2/jGeIo0zn+yCKhOC2LLHk4j5od32SWPT7afil8GGKPENZA74FhXObO+yOnjDuBxC1n7dmvpjS9wco515IE4sGO/BJ2dNj0hI17c/H/xB39KqbIGq/J8NLxZKsa0EoFxqRJQYljnTgj8Pvh/ecKtsqOh3usGf03vkgai/ns3Qx5eIlaFf4hliUO8+FLxoWpwq1saO7+BNxR9/Q/r+niYrerBBT+j6BdmvqxKKLn8MXDTfTpDXK2r/bxZ+IO/qk6SBqn9C0NDEl5ym0C104Jhb1XAE/FG9PlbZQ08BvXVAY9/C1TOmIKoYXgahdTl8RW9JXQrvabWLSydnwQfG6emkbZQ3Md0HhCq91lo6o6ychELVDcMkxMWXjgDJod6a/mNTPQ+QVresif4c2DWx9606Nhe9kSgeU/WYZiF6fl39HbOm0NATt7nUXi5q+8BBxs6ZelL9HnQZWu6Aw7uyOeeuefN8B0WsruVsptky650E578YmsahqsQ89X3pRnocq29rRqaxjFv1WAYhe24qJYsyQBmhX/E6FWJSyDJF2MC9d6EU7+mUXxKL/R9W2EIhe05MxAbHlWJ4D7Zr7bhSL0qsRYavyusmL0Kafq0Es+n/Nnwui1+NeqBdjvqz2oN3li2LSyWZE1sELE+XFaNOYOR4oXIfc0UuHHgbRa3m0XoxpGhaCekszxaLS/Q0R7vm+iUIvt6NfB4XzOuQZPe1GEESvwXn/uBhzcRn0G5woFgVGzUIkOZ93l5dDWWOuoxUqu3ZcOpqE9WdA9OrcNfPt/WNvgHrNt8SkrGkeIii0L0NeFuWMqQaF8wr/j737YGjq/v44flhhuPfeSt2CibEDJ6sYqhhnbSG5J6K/X0FWFa1yc50ILrQKKO5RJ8bRxXDSB/bf06TK5p7v9/N6Bs4355x7k5n6FT12a4ihyyB/qpeEia1k+7uVRyI51nIvsn4ZTtCVoudyGPBoWPRfd4W4iwBCB+JJmiUSFpPNFSTShnSTe03g2M/UFVCKokdgalh05+RX3EUAGY+jSBjXDAF/060TJNMfDdxrzJ+GU9dAzORDHAY69Ct64n6LuwTAt6+CpIm/EWTbaxtJMs1t4l5zbHkUdREUT85lQNGJiu5xVwAYO4YLnCHfs+2ZV+NJJNdXBvcS61Y1dR0sm7eTAVt3Kmv+mjsPwPRMcpE0MS8stj0rmWRyr+ReYh1cHEXdADERZnQI6Vf0vG+48wCCaXdInHOn2f52jiGZlhz0c6+wdlTvIej2HR2wdS/5vJ47C8AorCZxvJMNtj1z13WS6XF6b83nF13UTVA8L5cBRU99Z3InAWRNdZI4iVfZ/vxvokmmXvrgV+ObRV7qNiieHP6gCJj1cytIKxuuBLlTAIwVdSTP4w62v1PzXSTSnrt+7gXBtlFegh6ImZrBEF70vRWkkz/n13OnABQuInnKX7AADb+STKmPeufi8MBL0CNlU3MZwuhWdHdagDsBoGluKcmz5AgLcMNNMg06zr3g9OMSgh4qn5LBEMajWdHPXTL4kwD8K5NIHu/MLBZgVgzJtOES99zak06CHiuf2sKg+9bdOb+JPwng3igSKHG3j+2vdjQJda2Weyp0CT3vHWW4o6PodP4Hgz8BIHtGKwl0op4FWJNCMnkncE/5jxY5CXpFDO7o2LpT9ekQfxzA1ToSKK7RzwJsjSOZir/gHjLb/nAS9JJyzOgounNevcEfA1A4iiR6cI8FCEwkoRwruIcKb7cS9JrYaQ0MEbbusaSPO298DMrBE+60bLaf7c9Yu5iESmzjHgnd/LyUoBcVT8vgcCj69FjSx4Y2/giAZ3Uk0bA1LICx3U1CDe/gnjDujW8l6FUxZ1H0CKp0KrrzI48OAYSOXiSJnBP9LED2XhLKNaaJe+LmxFLqdbijv+cIUPQK0kbqVv47ANmTS0gixz9YgvQfSSjnjGzugSPzy6i/4I6OopeTNoYdMxggIv/6OyRRVJGHBQj9FEdCLd1ey92XMXkZ9QEoRtEjqZpWTtpoP2QxQATWjuEkUvEKiwXImu0lodwPQz3o+eYy6hOwbG8Law1FXzqriQEiOPTHn4R31vpO/SiSqvp5D3p+toz6CMRO/50jQNFjSRd1zwoYIMyr2cUkUutLiyX4ZiNJtam++z3vy/9boWIaiq75jF79NMgfAKg5k0AyLV/DIiSXkVTJAe6mhr59iwjK9x5mnaHozvH4wDgIc6maZHLutViC7NEk1dLtFndP1cxY6lNQHPmOjqIXkybiXubw/wNQP8FJMuWtZgnMK0OIdPstrrqLnvfDHR1Fj6BqajFpYsgqg/8PgECzm2QqGV/AEpjNF0iqB99zt3hmXaA+BxV7Gxh0LvqodP4/AA4MJqEc37II6zaRWK+zuTvyZ7upH0D5jCoOAw3aFD16Xj7/N4BQ4SgSKmpBB4uwZgNJVTLH6lbPk1OpX0D53AwGjYvuvu/n/wLQsdlJQpU3WiyBVVlBUp1/a3LX5W9JpX4Csdi66711T/klyP8BIPgujqS6doRFyJ9EYg3bwV13at8d6jdwQe+tO4q+6CH/B4Bng0mq4vssgm/tzyTWoirusqYvHdSPoAJF13rrXrIpgwGY/VcWC27NURbBaiwlqaLGW13v+bvz1K+gfEYDg75Fj7mbyQC+e+1/klTF+/wsQseJKJKqeI7BXZS9tV97DpjRsXV3PAoyaC9/czSJda6QZbg5hMQ6v5+7KOtFAvU7SL1bZXI4FL2MtDBkJYPuCpIvkFhls4Msw7ZYEmvwTe6adY/qaADAhbvhMzqEGnT5/t6Lp/0MWjMbk0iuYeksQ2Csl8T68VQXe15ZRwMCYlH0SBoml5EOXJ/vNBg05ts9guRyzs5mEcxLw0iskvlZ3BWBH+pogEAFih6JLjN66d5MBn0ZN0+SYCkPTRbB2BpHYpVuDXBXbLtMMJB3dAZti+5+F2LQlmdiNMnlupvNMtRsIrlid5jcebVpgwgG9I7u4Q+BoUvR8676GDSVPbuCBBu2W8qA/s0IkmtIeld6vn2Aew4Vs6sYtL2jj1zjY9BSKK2OBHNOC7AMvvXFJNfJFu60wIrBNMAgdZa+RUfRXe2HLAYNWcd+JsmG7mAhPK9JsOmnuLN8K4bQgIO4zzwMEe7oy0gDrfPrGfQTfPgjSVY6zWIZjF1DSS7XD0HuJGv/UAIbSEXRIzA1uaPHzsxk0I35/ImXJBvSxkL430aTXBtX+bmTjg8jsIULuKNHEGqYF0MacPzWZDBoxczdFE2SRX+WzUJ4bkeRXOe+484pODOUwM53dMiYFEMauLwth0Er9dOLSbQlbSEW4mEiCda+kzsleHw4gb3v6NCiR9HzztQwaORUchyJFr0lwEIU7IshwTYHuVNWjYgisI/UOfn8IQhqUvQRuw0GbXy9/jzJVr3LYCFOPSDJZprcGd+i5zZzYY6HQdOt+55Fu0IMmjAaE0m2suQQS3E8kSSbZfCn1RxbHkVgL6koeiTvtSi690mhwaCF4NU8Eq76EkthTY8myWbypxnHqqMI7MY9p4NB0zt69NhcBh34f/qVhCtPNlmKm6NItM687r96pIvAfuJwR4/A1GNGL33dwKCBK/KnqepclsLaHk+ijaviTzB2o+c2lfqFh0HTohdPr2JQ3tprLhKu/KsCliL7LMk2ss3gjyrYcdFFIOhZd3g/fympz/1FB4PiCm87SbrRO1kKY+1yks1xwOKPMa6MchHYlTsZRQ8X2qlF0eObTzGozDxyYilJ52g0WYrg9jKSbc+sbP4IY9foEgL7urMPRQ9n7HytQ9E33s9iUFiuCj+Yjv3dZCk8m/aQcMtvhvhvGd+ddBLYWRyKHoG583UpqS+hMptBWRmbl5J4l68GWYrQ0SSSbumXOfy32oq8BNi6C6RH0S9vW8egqJazMSReyfgsFqP2XRmJl3KD/87aMV4Cu7uDokdg6nFHH9QYYFBS/d5yki9pNcvRtJDkc7VncGSX2p0EuKPjjm5jefsDDAry3L1A8jmnZrEc3yaRAsr31oc4nHlUyBsTELdF26Ljjp53NcCgnPxZF0gBKU8Nxse+9rPyqUdM/lDBmgUlBDLc2dLBECZXi6KnXPUzKMYzW4meO2dnsRyFI0kNrWOv8Af8qxa5CKRwoOgRGHrM6ENXWgxKyf8sjlQwcm2IxfBVppIinNXbPIbB/+vQlqEuAjkcLzMZPmTkTtSi6McDDArJnBNHKkh952M56k+QMv68M/ptbmYN+3z+2uzDR7cujiUQxf1bPkOY3Ak6FH3YAYtBFUb+F3GkhIUtLIdvxyBSiKt8w/QVx3bf+iVt1pOEpQTS3PkNW/dwoUMnWkl9Px83GBSRnxxHSohfwYJ8vc9FaolyOpISK1x7CCRy/JbJEEaPrfuSlT4GJXhmu0kJ3k2nWJD3iwnARs43v2L4kE+TO/o/AwwK8MxKJTVc3mGxHDVXKwjAThxfnmL4kKHHHT1vxdcM4jXMrSA1lMzMNFmOnPElBGArjmYUPYJDE1pJfYPTshiEy522jBSx/LTBgnw3hABs5vxLbYuOO/r1yiYG0Q7NKyNFVPzmZ0HMOcUEYL87ehPDhww9ZvTEF5kMgqWfKCNVPDjCkrxfSAB2vKPjybhwhh5vr7mTDxsMQhV81x5NqjifZrAg1ooEArAhR4QZHULPx0eT+lKnH/IxiGTdeuAlVZScyGRJss8SgC3FN2cyhDlyIprUFzsxl0Ei/y/VXlLG0DUsibHrVwKwp/h34TM6WEe0mNHL/ko3GMQJXF0SRcqIac5hScxH0QRgU+e3oujhjCPjW0l9zoWnTQZhMtOuk0KKnpssScYDArCt85FmdNBjRneN/EcNgyj1vyWQQi5f9bMoZy4QgH1t/FLboqPotORNFoMcodxpblJI65RsFiVnrJcAbGxjhBkdDE2KnvQyP8gghHX0r3JSyYinLIvdvzgV4PyLLNYU7ujknt5iMYgQOjjKSSqpWF/Aovj3lhKAvW180cQRYOvuJA2UnfieQYLsqxv2kFJuH2ZZji4mALtLwNY9kpubokkD0aN3CJiT4NTWwaSWvGN+luVFBQHYXgK27hH4NSm6a/nVQJDB1oL1MzaSWpbOymFZdrYTgAAb72czfMjQpOg06EWmwWBjvvTxxaSYB+kmi+I77iAAGUV/xRFg6+4kHTjuHg4x2Fbg4EknKWbjdhYmfzMByJCwdR3rCnd0Wvb6ewa7Krha/Scpxjm5iWXxPR1MAELUrde46Ch668ndlslgQ0Zm82BSzog2FiaQXEoAUiToXHTc0b1LGrMZ7Mc6NDWOlFNRWcPCNFQTgKSiZzGEuTkumrSwMTmDwW4KdrdHk3L+3NTC0nzlJgBB6vCseyTpmszoVH5irclgKzlvlkeReob+ZLIwnjEEIErdo3Uhhg+YN8c5SQulo47VMNiHUZWcSAoqn22xMNbVywQgS91XuKOH86ePdZIWXHnrqxjsouDpxApSUNS1nSxN5iQCwJNxKgilf+4kPaROKbQYbCHrwKISUlHd8QALE9qdRwB4e00N2szo1Hpt1dcMNtCybxApqfRuE0uT9ZmLAORJrETRI9BnRqeUdx0+HmAQbPs8ldR08rnFwgTTlxCARHUoegQ+fWZ0intdWMADCvL/ec5Jahp8xmRpapuXEgCKro7v9Sm6c9T+JpMHDFiHZiWQoso/s1icjMUEIFSi3nd03NGJku4e4YECOauKykhRrqKdLE+lmwCkStT87TXc0SnmybGAwQMAjKotKaSswTdCLE7+AgKQK3Gb3kXHHZ28ee8aChj6Xc6azytIWcXNOSyO9SyRAEQXPcAQJv0vJ2mjeNMVi6GfeSqHu0hdYzNYnvz5BCBaUmWAIUzh7RLShnfE+nqG/hTcNdlNChsmceFurR5MALIlRZ7RUXQn6cMx8WiAod9kNi5uJYXFfWmwPE0zXQQg3GXc0SMw9Sp69PLtHoOhX1jpZ8+TykrGVbE8xtGhBIA7upJCehWdHNP6ZUgHf8c/f4wmpZ17ygKtS24lAPmSfihgveGOThS9KC2T+xr4Lk1PIrUlbK9hgW5uIAAVXH9by6D7jE4JJ74JhbgPgT+/cnEpqa10bofJ8vi3xBKAEq6n5bDmcEcncg79MreG+wr41+0Y5ybVjU5nidIvEoAiktJqGcJ8r1nRKebJmXzuGxAsTB7iItUN+cVggczmCgLA1l1phe1e0kvi9Id+7gOQ37iwlJQX+9JgidKvEYA6BqHokVxqLyG9LD33wlPDvQzWnZ6YQOpzjfewRNZXxQSg1B19HUOEojtJM3HtPzVZ3IsgkPEypZU0cO40S+TLfUAASkl6U8sQ5qh+Raeku2sLuNdA/tXRy0gHG9OCLFFB2jICUMvgNxZDmKftXtJN9I+VLdw7oODglDrSQtn0DhapYRQBqCbvjZ8Bd/R/524/3hRi6LHQvTnDvaQFb9E9Fsnc5iYA5QzeHuAPQUjLopfUTf6uiaFnahvSLi4jTSy5wjJVjSYABQ3aXsCAO/p/cA5JLgwwdF+w6sDtiijSRHxjLYtkvj1PACoa3OhjCHNpjJc0VLpofQtDd2Xd2JxI2lg2I59larlNALija+TpgijSkftko8dk6LpQwdrpQ52kDdeY5yyT75mDAHBH14jZVlRCOnI52lch6V1Xk578cylpZPjBEMvUMJYAlDV4RYAjwIzuJC15HROPeRi6wp/+4lwp6ST+jckymWfiCEBdedv9DGHaFnhJT3uuT72xjqHT3j96HENaiZn7ioXqUPuaBpDX6GcI01YURZoqGTptl+Fn+LRgbUfaaDfp5c+/MkIs1AoHASgtD1v3SNYWeUlXrUNnFeYwfEpt/conDtLN4jVBuQM6AeCOriHraZGTtNX6c/PRAoaPMaoOfH7HRboZ/MxkofxpGwlA/Tu6jz8ExsMnXtJX68XfHtbw34Fg1f6JCaSf1GYf2xjeQQcYsgJFD2fo9WRcmOJzM07XoOmR+Grq09rr9pB+oqfms1TGdjcBaCDlGYqOZ93DLE2ZsiYzYDL8f7W5PzxwkI6ibt9jsVraCUALQ57VMIR5WlRCWnMmTlp12OL/A16tfTey2EVaOnfQZKn8+ysIADO6vvzfnfSS3vZs3PQmo5bhv2TtnnUumjSVtMJgsTyj9xCAJlJwR4/k4UkX6S7+5Itchn+X9e28YdGkqwvNNSxXo5sAMKOj6LqLSl38280mv8FaM2rrD3yeVELaij7bwXJ5ThKARlL2BxjCPBztJYhZcnd3vcX68jcdTStyl5C+XEU3WS6r0kEAOkm5ajCE+Y87OriuT2x8bhisJWPd6tkjy0hr1Qf9LFfuAgLQy7CrFkeAoruIiCB+4b7CgI91Y7Ln2YShTtJb3kofy+X/IZUANDPsDIoeLvRwdBTBv4tdMuVYfU6Qbe1f27sPhibP9u/jR1BEBHFA0bp3WxdCAtpWqcgScMY6igK5jriVgDiqSBInhmpFFKniVhy1GjtsK9qJb+x52v89egsqI0CuK98P8x38cpy/c4SUz9225dHDwR6JcBlfu9XEWu5LxAESdrj1VfA+OOUR/M2eMedpcZNPI4PxS+OG0dcG8Hku/U6JmljBH2kSeYAEVt3f0qPDeW3UvdN5hlqea/Pn+2orbYKo0c/UzDYNl0gEDPvcr2hn62yH/Af2zJ/522a1tubrUx8OdogIymcfU1ObnCYRCRi2w1C0szXJIfgvR8zZSTdrlqo1BdqyvzsVXyn424hiv5qYr3iYRChgWGZAXwXv1iSP4J+iBj386PIztxWPnD8ZE/+f69px7YpXzSx/gkciFZBywlC0c3q2U/C/HEOS710vCqp1eAsffzWpdo9N8G8ZH+WpqX0SL5ELSMk0tB1s7eD0GloTbq1dXqDWEDj8+wcjb8s/YPekIjW1mjES2cCMru0geHp2ubSHqqGzPlpyMa/M7AfODy+aufKcR/4JrWP+VFPzn8mQCAdm9DrFq4Jbude9Y47dgx/OOJTd7DfUjAwj8Ofp9aOHNtjlf8HzokXNrWYWH8PBzjjtAnp0lDtvz3l/w8Zml5qN4f72xNpbcVE2watsVxvL1NwWcukrMPyMTztAotvktZBRO2rG9pqgmkj+1hXj7l/zSEcwt7pMza0lUSIeYBt+wqfo4PTaz/IG2BM38oPfstvy6rwa5soCbT9+NjUpIaNcOoaUgz41uadVAkDO3/UrXuXNuuoQvJG9Km7XtINLcsL4FZdgadGmbetGp2Sk2eR1EPeVX82tbONcASBiO3+iVNFO1kOn4C1szsqEW9MXXb5olGm4MVy5jZl/zKyNtjsEbxDzXZ2aXP5UuwD4/8p/6GjVHcsf2qQzcHvEi4n3rl/0axhp3vjbe2su1HsEb5E6o0BNzlW9SgC8vkdHMOvhz9I5cGasql0w45Nlbc1uQ73abwxvXX7bxeX3PkhMWF0heLvd75cE1eRKfnXIvwA4f6JOXwVvl1bd4UzPiL/66Yrrzw+3lbkM7Wtery//2ZblG6a8SDlXZZdOQdq4pjI1ux3nBMC/2VIO1inayerieXTYnPaB85Im/LHoUGObYWif8Td/W5358ZSXK2/bPeXSWWg9ucyrZvdstgD4L9uIg4r2sq7apOvgiJ639+WEtRuKc0qN3t765ip5kLnu/TUPh6+Okq6B86dsNT3jj1T5BwDlI+56Fe0s73aPjvLdg+edfXjyzoHj3xbl5uaVBv2hu8O1LLD0l7ainMtfzfhg1siUIal26To4Tj1X03MtGSmvAJjRtyvaCfbwPDo8AxoGxf5wasydr08sf5697Eib22+o19AuM1QNr8/dXPPnjcdbD63/cNyL2iHnUtOjpJtQvjdLzS//vSgB8L9sP3xSp2jn8n2noKfKnR57a0Nc7ak1E6Z/t/DKJ8Wnn2863NSW7/e5XOr6O9+NV4Zwr7pchuFyGbq0pGlZ9uOt1Z/t+GrF/n1jZl2Yd7vVbnfaBD1hm3+8TE0vWDxUALyqfCWr7h2pTrQJQqni9pCUsxcSk2Ylj/513KQp09b+8fX6DVcyT2w/frM6a+PGrOLFx++eubJo4Yp1T6ffmTR+7MkFL05d3Vs7PD4m3SEIlWEn1ALaxjgEQDs2evSOBKoTf5ZeA2drelXGucGxQ+LiVw1NGJaSMmze0FVx1y7Vx9xO3V3hkd6B+EV1an6+HTHSAQC2lZ8p2vFevu8QSwHqF9Z51fwuJsnrACR6qeJVvupEp1gIEHNvqVqA67VH1gDY5t9VtFd93yaWAQz6Pl+t4PlIeT2ARN+uaKf08v2fxSKA1LW5agX5U1sFeAMS/TNFe/ToloGGaSVqBd7r1wR4I3r07QG1Ks6jA1V3itQSapLLBcCb2M5+VqZop3qOTQDT2zOpSa3hQKoAeDNHbQc3SCFQTKLD/NImPFNraKyVtwNI9ENlinZIdJhexdgctYbSSa3yVgDKzx4PaAdIdKcAJlYxusWrluA6ES+dAKC89jND0c62RIcAptWavEUtIuelAKBH7766as6jw7yikh+rRbhXVEmnAfTofkU7y3kfHWbVuiZbrWLLcOk8gB79ulvRTlaSRwATGjD6hlpF/oQo6TQAtpGHXIp2tiY5BDCdyjE31DJ2xAqALnCQ6B3auMspgMlU/NqilrFslwBdRKIvdileFXw+yymAqQwYe1gtw/XHQAHQNY65i92Kdh6/YxfARHaPy1HL8J4eIQC6yjb3kKK9xhdOAUxjz/hlahnBkrFOAbqDVXdFe8duRQlgEgO+3KzWEfjqtgDoBseFbYp2jOyTFQKYQsPkH9VCskcK0E3M6NtKFe38OTZdABMYNKPIUOvI/7JCAHSP7cJiRXtNExsk7AH1H32hFuK6ckkAdJeTRO9QyXuDJMwB1w7kq5W0JAmA7nPSo3fEyH06WMIaMHRDnVpJ/v40AXqGHj2geJUr/7trEr4Axw+ZXrWUxdcEQI/YmNE7EixdOEzCF1hbu+tXS2l6xyEAesY5p1jRXmHmfAlPgCOp2KWW4ntaJUDPkejVivZKj490SBgCPC+WGGoprm3nBUDPOZjROxTYmmQXgOdSe12w5l3pPQCJDv+m5AESZoDUSc/UYgIHogVASDgTi7UD2DyuSsIKsHpGiVqM6/EIARAinsRqr6Ido2nKbQkjwLV7zWo1ub/aBUCoOO5nKdoLtq2LlXABlJ9fVOhViyn7eJAACB3H7CztAPIXzpPwANgubC9VqwlmzRcAoeSZvVw7gMLMleUSBgDPqSy3Wo1xZIxHgBAj0bOCivZ8N/d6pN8BFQuOqfW4VzRIiAFwPszSDsB4/E6lAP0sdfyfhlrP6QTpDQA9uqFoL9gyLlqAfhX7YW5QrefiKI+EHgBPEonesaYZqwXoRwk7cw21Ht+jBukNAOxJWw3tAEp2xgnQXxy1d5caaj3G4hTpHQCcr0l01J1Y6RGgX7QmbfSqBflyFkhvAeBIOm1oB+AvTmoVoB80nLzhVysqfLRH+hxAjw5jyckB0ueAQXdygmpF3m1DBQA9en9YNjlV+hhw6V6RWlPTLIf0MoAeXTuEknVxNulDgH1EZr5aU2D6HultAD36Ru0IXK4dc53SZ4D0WcvL1Jr8J+KltwHw7NqqHYKxPDlN+ggQPTHbUIvaclV6HwD7Nw+0Y1g2KUP6AlA+ZF2NoRZVMjFK+gAAz+sSHf6S74bapNcB9tpMt1ctyr0wQ/oEAOdrEx0Fd/c6pZcBA5JPe9WyLqcIAHr0fud/kLxbehVw+/1lal3PFnikDwH06EHtEFx/TjknvQgYuqK5TC2rcH+V9B0AnlnPtWNwtf2eYJNeAtgTP8tT6/KdiZO+BMD5znPtGLzubbPTpVcAqWM2BdTCshOlbwHwvPNAXwO+7AkZ0guAVfuL1Mpyx9uljwGwv35Gh3Hk63ibhBjguZDZrFZW9vEgAUCih5XC43MqJKSAqlGPXWpl/uoRAoAePcz4tsxMlRACLn1Y41crCy57WS4A+oOHRH+Ti9/HS6gAntpFzWptzR/uFgD9ter+OKivA3fmXoeEBJA2Ksuv1ha4Ui8A+ov9p0avvg5KG0Oy7A44Lu3fbKi1+R7MFwD9x/NTo74WykoezbMJ0ENRezPr1OK8fyZ7BEC/JvpjfT2Ubk9KE6BHUmc+UMvLn14lAPpV1BtndBgtkwYJ0APz/qhRy3N9PkQA9HuiH/Pq66HotxSnAN3UOvtQvlctb+t8AdDvPC+3ePX14M6aVSVAt6yecDio1vcs2SlAOCDRG/VNsHnqJQG6zjniQLNGgPyp6QIgHES93KJvgtwrV6ME6KKGk5eXagTwLqwXAOEhKnmTvgnc2XfqHQJ0gX3YgWc+jQCu6rMCIFzYk7fom8CVf+ZqmgCdljF6o1sjgfHnS5sACBue5GP6ZrgxOU6AznHOv1ekkSF/SpoACK9Vd6++CYL5Ozp3ywwQPfOyTyPEwhgBEFbsydlBfSPULZsWK28DOH9YWOTVyGAUjxAAYcY+KlvfAs3br1bJGwEx7y4p1QjhbdklQBgi0Tfp2+Dw1PhyeS3AXnsgVyNGzbgKARB+ohaQ6G/3y8FZafIawKBPN5ZqxMh/mioAwlFUJ1bd4T76NN4pHQAqzi666NOIYWQOEQD06OYVDCx+p0qAV5UP/jLbr5HDV71SAJDo5vbj0xSb/A8g6v6GXzSSZM9yCICw1bomW98KwaXXR1XJPwCxUxo1otRMSBMAYd2jt/j1rVDW9F2KXf4FSL+6o1kjytI/UgVAWIta06LohLznYweXy/8H2BPW5gQ0ogQzLwmAMGcfna3ojOYns9NFgNUnL9d5NaIYxfPFOgB6dGSvHeYQRLjWq7/VaIQxbrxwCoDwV9HZVXcUVv96u1wQwexxM7L9GmlK9qUJADOIOtkSVHRGWduGvbsFkap80KjqQo04hfeiBTANEl3ROaWHp85zCCJSxd71JUGNPJ9fEwBm0Uqid17eoTG3BZGnfOjUxoBGoMUrBYB5VJw8qugk48dF9ysFEeb2mJu5GoGCW06VCwATaSXRu8C9+dH5KEEEqbq/o8jQCGQ8e9cu1gXQoyN4etw1QaSwz9//p0am5vcHCACTaX33qKLz8jJfNggiwpCJWX6NTIHvowWA6aT9etir6DRfzoHaCrE8NCR/kmtohNpwTQCYUMWYw4rOMwoPT0tIE0tD1YXfi9waqa6PEACm1PrrYUUXGKVbxw91imWhcu7THLdGKqNxtgAwqdYxRxVdkvfZ2FixJjh/mPbYpZGraYFTAJi3R1+m6BJv24nkaLEeOOMmZxVqBCuZOEAAmFfFr4fLFF1Sd/HJw1SxFthif13erJGs4GmGAKBHjzClNfcS94iFYHDywXy3RrIAG9wB02uduUzRVUb29xdaxSIQ/fKrGo1swePnBYDZDRi7WdFl7sffj2gVmJ+j6ptFy7wa2fwb5woA80sj0bvDl7/lw2GVAnOzpd7/KiegEc51bLZDLABABYneLcbSY5OHVwhMLPr+iqY6bkxsWRAlFgGQ6MsU3eFePnmYQ2BSlffXHXYpjoyvFMsA6NFzgoruyC+evMojMB9b2oV7m/yq+GJ6g1gGgLRxOYpu8TZvnZKQLjCX8ui9H7e4vaoo+Pq2WAiAtE9zFN3jLWy8U5suMJGYUweaAmWqirINl+TfADCjo3H/nEqBScQsWFgTVPzFeyJBLAZAJYneE+5jK0xxexycq09m5vgUfwtWzxfLAVDJqntP+AqXLXx42ykIaxVDxiyuceu/4PEch1gPgAEkeo9464o2vLzmEYSt9OFfVueVBvVf0PLSLtYEsDPumaJHSk58muAUhKX0OdM3Fup/oenTSrEmAOkTflT0iKu5eFoYXh8HR0PSgS1+/QeU3KkSCwNIdEPRI8HmLX/MTXUIwkjU4OQdOYX6T2jenyrWBaBywjNFD/nrnh34JtYhCBMVw2Yez60L6j8h/4/b8jYASHRcvDIzwSMIA7v3Tr1cqHhF3YrB8nYA6NHhyr05/WxauaBfOW6/ONDoVrzC6/vqmgCgR0dnGEZz9vrZgzyCfpN2beb2Z25FO/4dqwSIBKy6H1GEglFalLlmaIWgX6TWTnnwi1vbQ+nd8wIgElROfKYIkcLFU/YOlL4GW/2LddmKji2utQmAiLD7yyOKEDEKG38ffckjfQeOtJWTT7yuOYJ361WHAIgQuyceMRQh4nUfuTz9bLRH+gQq6mct3JLrV3Qs2DjLIwAiRvrEI4rQ8ecf2TBq3gBBbyu/XbuvuM1dpngN77fJHgEQQdIn/agIqfzqaUkxgt7kmTf648OGvgFyxtgFQIT16E2GIqTcLVf21aY7BL3CE7Pr+8VFhqFvgJpP0wRAhNk9qcarCK1g26YrY+YNdAhCLOr2yOnbNhf69Y1Qs2+PAIg4eybVGIoQMwK/ZH/807w9gtBxnKud8ElNfp2+BYreHygAInJGb1L0hvzla3+K9whCYmDt2N8PuxU8mArgTTO6old4mz5b+80gp/QMbK0JM9dvbFZ0RtudVAEQofbs660eHa7CZYunzc2Iku6CIz321s4lNQFFZ3hzp6cKgEie0YOKXlKX13R3/NlzTukGDIib/fR5boFL0Tm5M24LgMie0RW9KHD497G1qdI18FxKmnq8TdF5eU8HCYCINrC3Ex35DxZO3BvttAk6xREV92L/mc0u7QLkfx8jACJc1eQir6JX+ZqzD82YXb/bKW+BqNSEk+tP57gN7QL48j9aLQCY0ScXKXqXYdTlFz3/Lvl8jF3wWunXLnyZmVPi1q6BN3/dYAEAGTi5RvsCAtkLJ1wdYhd0oGr4renbi7QbUPB1vfx/AFD1fo32DdS1HHy6YF6rQ/4LNmfqhQk7LxcZ2h3wfTxEAOBvVftq/No3YASatm4Y90N0hfwFzt31s/cv3pTr0m5BsG59nPwLAOzZ1+TVvgJXXW7O9sn341NtEuEqBp9fcO95UX5Auwt5B+IEAP4j/csm7VvILV438358hUSqnzNGvJi8oaVUewIFK4bIPwBA+vg/ta+hsOXud+P2nvPYJMI40oa+mPrb8hKXoT2CwnWx8j8AoHJcTlD7HNwlmxbfG30+utIeMe+tDKy/P/nz05sLXdpD8Oevq5dXAEDa2Byv9j0YRmFbTvEf745cNahVrM02sH7Yqfc3bLnYbBjac2j+aLC0AwAVM1sU/cRXql9k7dz3ojY2SqzJlppw/90ZmUdLS0sVoZH3NEYAoAMVJ28o+pMvd8mOP8bPjo+y2ax1zjxj/oL31h86HNIbXdG8/5wAQIcq1mQr+lnZLzeWX5n2U0JqpUfMr7x1z+ALY1ccWvKsrkwRSt7cGYMEAF7DPmqTot95A3kXN//VqscPqrSJadkb/mrMFx37sc0d+socudMzBABey5ncqAgLgTp3wdb1742efTauwSEmE7V62N6fJjw6s6y0rlTRG0qmRssbAID9p+eGIlwYrrqLG0/s/HDsqeHnPGYo1m2O9PgLC/b9sWFxS77Xpegl3qI7qfJGAGDftVERVrzqzj269frnH747J64qPVwfdrGn7cn44Z2JXx+sPtYUKGONvVeV1UxukLcAAM/VYrci/NTltTUdrd45+VbtqsGplQ4JG1EDBw1JuTrzaeaxnIu5bqNM0dueTRwobwUAjpHbFWEqWBooaN6SuW7qB7cezk25FB0l/ce2e/WqEXNOrZm09vdtFwsKSku92ifQMnOAAEAn2EacUIQ1r8vlrmm8uWP9o6ljbyUOvzSw3CZ9xWbznBs699ToSTO+3vBJ1uHmoMvl1b4D77EFUQIAnWJLeFKnMEOse71f/Lnp9M2DXz2duCAxJaZqT3paq90poebwRFUM2D0wOr5218ypK64cv/y8pabA7/L2fVUO4/mLKAGAzopbWKgwDcPvX/rFxZzD2acPLvzozrhRSXOHrboWO/hcRmpVeoXdJt3giRqwpyF6UEz9pfh5PyS+GDNpxoor244d3XykLS9Q1n89OdyXkzwCAJ0Xe+8LhfnU1bndhQV5ebnfZh3P3HBg3dr33p/w65qfZp16eH/vyNr5P6QkrIobUh9zO7qqsvWvXPjZnra7IWPQ4Nhrq+YNGz7i7NwLiVeTvpmVfPKDSXc+fPT175/fvfn4SF5eQUFBacDt9yn62/G9DukKAIh5WqIwOeOvr7++6wpLmpZlNz7IKj60/cSVRV+t//jrdY/WfvjetBlPP1q3YufCDZ9nHjx+8/LW55uO5tQ0u9X1F8PwehVhxZc53yFdAwC3pxep5cDw6l8Z7/rr21Xmdxkuw3B5XS5F+AsGngyzSVcBQMPkHAUQNpb+Fi/dAADpE1oUQJjIXxEr3QIA6Sc3KYCw0PZotXQTAKS90+hXAP2vZvpt6TYAsM+pVgD9btmkKukBAHCcvetSAP0q+PxkmvQMAKQ8KVAA/ch3+VSr9BQAxK9vVgD9xrg+1yM9BwCrH9V4FUD/yL8SoutkAOD2nT99CqA/tB2IEwAIkYaxyxRAPyjaP1gAIGQqX2b7tY8BMJom3RYACCH77AeG9ikAweyTuwUAQsoxZ3FQ+xAA/4NZUQIAoTZ/R4H2GQClixM9AgChN3RFs/YRAIWZP/wsANAbYqYeMbQPAPCWHIgXAOgle2beKFMAvc57ZGqMAECviZqVVaoAelnZ4V8bBAB6kWPuGbdPAfSm4JIXrQIAvcq2akWzoQB6T8HxOU4BgN4WM+1iUAH0lvyF56UPAMCecdkKoJfkPr0kfQIAKt5Z7lcAvcDbtC9D+ggAeM6ecCuA0MseUyl9BgBsq3bmKoAQcxfvsktfAoDV054pgJByP5nrkL4FAFUntwQVQOi0fRRnk74GABWJNwMKIERcLV+mCgD0A9uwr0oUQEgYxbuiBAD6R+yHTQogBPIXrXQIAPSX6JMthvYUgItrhwgA9KPWh5cD2iMAXNkzUwUA+tfwDbmGdh+A0sUPowQA+tuQGSU+7S4AzQuHCwCEgdSxLT7tFgCui1NjBQDCQuuuywVB7ToAgS2jqwQAwsTPP/zerF0FIJh/ItEjABA+YqYc1i4CUPT9UAGAsDLgRbFPAXRe0HeM02oAwo99+G/NCqDTCu/OsQsAhJ9zd24EFUDnNP1xzSEAEI7SbhUrgM7wLfmgSgAgTHlGLMwN6tsAcB9MrBAACF8xUzYb+kYAfDXr4mwCAOGs8sVlt74BAFfj2CoBgDDnGLE+VwG8Vv6JxCgBgPBXP2lZqQLokFH0dJUAgCkMOHWzUAF0oPT5mlQBAJOwzbtXZOirAORuqHUKAJhH9LgHXv1fAJbdqRcAMBX7nCf/fFIVgMu1+EWlAIDJ2C7NeKYA/qPk4xSPAID5VCYvdymAv/kaJ6QKAJiSY8TvbYYCUC04c9UuAGBWgyce9SuApv3xAgAmlj775i8KRLjC5wtSBQDMLf7pM0OBCOa7+PsIjwCA2e1+ebxAgYjlfjBukFgBACTs/zGoQGT6Yv1cu1gDAFT9VOxWIPIE3cfGxYhlAIBz6LrNCkSc3A0WG88BYPeom2UKRBTfg4mDxGIAwJny0cUyBSJH7ld7W8V6ACD65dY8BSJE6Y0Jq8WSAMA57N4RlwKRoOjzkRViVQDQMHpbgVofsGnfarEwAPh5+Pc1anFA829zKsTaAKDh1rY6r1oW4K07Nm6wTawOADyrnh6tU4sCjJqFtXYBgEgw4J2DeWpJgLF8XLQAQISwrZp62KfWA9Ssm28XAIgcA+9/kutTawHyspIzBAAiS/3k7IBaCOB6tm6eRwAg0kQlbmj2qlUAecdf7hEAiESx47eqRQDLps8TAIhQ9pXfNZUpYHquL6483CMAELkG7tpeZChgat6C02NjHAIAkcxWP2lrnQIm5rvxNMUpABDpomo/OhJUwKxyN5zaLQAAkYxdB/N8CphQcOnGX+sFAPC38thJz5cqYDruo48S7PJvAADP/HuHDQXMpeRJ0gD5JwBA1YszeQqYSPDy2MHyCgCAY8j4xqUKmIQ3Z8b5KGkPAFCR8tFhtwIm4G9atHe3AAA6NmD2BhPcMwM0f3YyQwAArxdz8nhAgbDmWrJvqLwRAMA5dN+moAJhy9W0rrZV3gYAkLbywGZDgbDkrTmRVCUAgM7YPevKRa8C4Se/+INzDgEAdFL9B8UBBcKMkT1tmFMAAJ1nT5l2I1CmQNjwuot2XtgjXQMAqKxdsaxOgTARKDqxK8MmXQUAKE9P2sDuOISJts/GDHJItwAAMhZcyVWg3wWWT4wrl+4CANguvVuc71KgHwULW+6kVEhPAAA88fuWFLoU6C+Fh79bmS49BQCwn1/bGFSgXwRyFt6vFABAKLTOWbfMp30PaHtyK1UAAKGSOnthW6n2KcD/y+KT9eUCAAih29/sqHFrnwH8JcUfXIoSAEBo2TJeXqnRvgEYucfHxzoFANALYkZfKdI+ADRvHxcvAIBe4ohdc7fZp0Bvd+czV3kEANB77PUnF+f6FOjN7nzskCgBAPQuR/2nh75QwOzdOQAgfsKhPAV6pTv/NF76CADAPm9ccV5QgZDyNR8f06fdOQCg9drYmyUuBULGXXR8dGyU9C0AgKd+5sGagAIh4X6WuSbGKQCAflB/8kmTV3sMCD77bUGMAAD6iaP+pw0lddojQF3N+l0xAgDoR45zSYuaCrW7AF/hn7/fv10uAID+Vd4we2GLW7sFcG86kDhQAADhYGDSui2Gdhngfv59YqUAAMLFwAtTnxcGtAsAd0HW+7WVAgAIJ+kJX1bnug0FOsddsviDVQMEABBu7LHvHszxK9AJ3sM7RsXYBQAQjsoHvTzQUqZvAbiz782KFgBA+Iq+vza7VIHXKy19PH1vgwAAwlvVD3ce5Lq9CnQk0JY1KWWPAADCX2vc+EN/uvRVgOFeduJXHmABANMoj7m1otHt0n8CAg/WzcooFwCAiaSOnFxdqP8GePOuT6ytEgCA2VTErzlzpNCvgBr5OU9extkFAGBGntSr95b8YiginKt540d7GzwCADCt1hGT715URLQfz0xMiRIAgLk54pM/zvEpIlTw6HcvhjgEAGB+toyzUy63lSoiTVlh0baJK6PFKgAArYN/+q0xt0wRQYyS5zt3xUSJlQAAbGm1k8/UlCkihOvZjkkjWm1iOQAAx5BZjx57FRGgdOPaU/U2sSgAQMP5sdtrCvxqYSjLO3LmZMJAsTIAgD3j6rqtNW61KASOZH0/J9oulgcAiBo6Zv2SfLUeuJpPr1gTORfCAQCqasdt+FGtBe7NC2fOTxcAQCSxDx45ubhoaZlaAtyFF69Pqo1xCgAg4lTEzP5ua02ZoTC7uqasR/fPtQoAIDLZ7PHv7tzoVpiZNz/r6zVD7OUCAIhkVWfHrm+pU5hUXcvOX0dUCgAAnnMrZz7Z3FxnKMzFndeUOXblIKcAAPA3e+r58Wc2lfgVpuFtPnro/fn/e+IcAADn7rOTNjyuU5iCe9mJafejndIeAAAZFz5deNSrCHdtx9/7JtYhAAC8hidm/tjPc34JGIqwZASWtp3ePzu+Qt4IAAB7dMrYJ41Ffq8i3ARzj26bcbU+XQAA6ARnWsrMnZeLXIowYhQuWTQlMdpuEwAAOm338DXfFzcHFeEh//S9mXMzpMsAANgz75v9WbkFpYaiHxl1BSVZT2elRDukWwAAsO2uv7q/+EaJ21D0C5+7JPvmh4n1e6QnAAAot0fPnbD+Zo7Lq30NxubFB8adbQhNbQ4AQFrCO1MWZbu1D8F97LfJu4a2SggBABA1eP6Cj06X5Lt92tvgzi+6/PTWiNV2CTkAAJxV9Xv3ndjSVKiG9hIYRkHTsR0TRw7e45DeAgCAJz1hwdPMrRfdLkNDDIZRV5O1Y//LoRUe6W0AAJRnnB01bdGxwqCGDgwtfP7V1OSV0dJnAACIil354r0TOc1Lg4oeMoK+pc2bM+/MGjHYLn0MAABb+rlhL7+/eaMm4FX0oDM/kn1o/4t5gypt0j8AAHBENQxf8+jM6SOBMu0yGO6mrB1PF6RU2R3SzwAA+DljfvKd37OafdoF8JVU75xya0SqhA0AADznUmaP3/m8JM/tUryFEchr27ji06vDBjkl3AAAEBV96cK437cevZjn1w7Bq2V5R77NOjB2bmyqXcIVAACeikHzF0zfcOhxkd+r/wSv+mueH//tveQfMjhnbgoAgLRrF9ZMWbG9pdDr1b+hMPvgvckLRl6KEjMBAMARvWrui0kHLtfkFdT5ghqpgqUFeTXFKybOql3VYBNTAgCgIiP2/K5967Nu5JTUeTWyeIN1Jc9uVB+Y+E1KfXSrmBsAAA57WkPCqS+/PlOdnevXyODyl2RXn/lufNLQqjR7uQAAYBk/pyY8/HXagc+y87xqZYar+dgnH08dczWhQQAAsCZnxtC53/w6fWH1kV/yCkutdbbcXZCfu+XEvSmjk2pXRf8sAABYnHP3oNiExDEfPtn47bOipS6veg01L5errvlizrcbrzwd980PcYNTB9gkcgAA4GmtTJ33cOb+r+5ue3Cjpq7MaxhqMsFATfbpQ5kH7oxOXJVaWRHBZTkAAM7U+LNJayZ+eG/R8SVNblNM64ZhNLcUX/l4xsRRD3+IrZR/AQAAzqr6efMTd828s27RtqN5eQUFdYGAhhV3oK6gIC+v5eaiPyafPDUyZQiXtwIA8BrOytSYS6uGJy6YsP/3443fbm4qanZ7XS5XmfYHr9dl+H3u3KIfc759vH39jPHJicNXxcakpv0sAADg7Zz2iso90fG1p96d/Oj3zE8WL1+S/WeJ2+81/tL7S+our99dtDl7yfLFn+xY//37J0+djUvdU1nBs+XdBQCArTwq+tKw2oc/jZn43vdff5V5vHrJjabm0r+CPSTZbvzft8sfDLQ9u/E4q/izzN++/n7qlyd/ulo7LDbabrNJKAEAAHtVzJB5w89euH/qxaiZX97Zv279k7vFpxtbfvwi729LCwqWFnRgaeG//1man/d/cv9vAM9ctPDjP/ZPfX/8r2tu7ZqdeKF2RMrQIecGeqQvAAAAR1RlVca5wUPiVs1LSBl+du/VUz+tGfPppKkf7n/FjOnTpk6ZvG/ihPHjxo55d/So5FmzE+eOGD4sYWh83JDYwTGDoqt2p9ltEtEA/D8sJfVNeU5mMgAAAABJRU5ErkJggg==;" vertex="1" parent="UKZgeWSrZiBoHaI9SNrV-232">
          <mxGeometry x="41" y="97.92" width="35.5" height="24.17" as="geometry" />
        </mxCell>
        <mxCell id="UKZgeWSrZiBoHaI9SNrV-239" value="IBM Cloud" style="text;html=1;align=center;verticalAlign=middle;resizable=0;points=[];autosize=1;strokeColor=none;fillColor=none;fontStyle=1" vertex="1" parent="1">
          <mxGeometry x="400" y="240" width="80" height="30" as="geometry" />
        </mxCell>
        <mxCell id="UKZgeWSrZiBoHaI9SNrV-240" value="External" style="text;html=1;align=center;verticalAlign=middle;resizable=0;points=[];autosize=1;strokeColor=none;fillColor=none;fontStyle=1" vertex="1" parent="1">
          <mxGeometry x="1440" y="240" width="70" height="30" as="geometry" />
        </mxCell>
        <mxCell id="UKZgeWSrZiBoHaI9SNrV-241" value="&lt;b&gt;Telematics Data&lt;/b&gt;" style="rounded=0;whiteSpace=wrap;html=1;verticalAlign=top;fillColor=#d5e8d4;strokeColor=#82b366;" vertex="1" parent="1">
          <mxGeometry x="1440" y="320" width="170" height="80" as="geometry" />
        </mxCell>
        <mxCell id="UKZgeWSrZiBoHaI9SNrV-242" value="APIs" style="whiteSpace=wrap;html=1;verticalAlign=middle;fillColor=#d5e8d4;strokeColor=#82b366;rounded=0;align=center;gradientColor=#97d077;" vertex="1" parent="1">
          <mxGeometry x="1465" y="350" width="120" height="30" as="geometry" />
        </mxCell>
        <mxCell id="UKZgeWSrZiBoHaI9SNrV-243" value="&lt;b&gt;Service center locator&lt;/b&gt;" style="rounded=0;whiteSpace=wrap;html=1;verticalAlign=top;fillColor=#d5e8d4;strokeColor=#82b366;" vertex="1" parent="1">
          <mxGeometry x="1440" y="440" width="170" height="80" as="geometry" />
        </mxCell>
        <mxCell id="UKZgeWSrZiBoHaI9SNrV-244" value="APIs" style="whiteSpace=wrap;html=1;verticalAlign=middle;fillColor=#d5e8d4;strokeColor=#82b366;rounded=0;align=center;gradientColor=#97d077;" vertex="1" parent="1">
          <mxGeometry x="1465" y="470" width="120" height="30" as="geometry" />
        </mxCell>
        <mxCell id="UKZgeWSrZiBoHaI9SNrV-245" style="edgeStyle=orthogonalEdgeStyle;rounded=0;orthogonalLoop=1;jettySize=auto;html=1;exitX=1;exitY=0.5;exitDx=0;exitDy=0;entryX=0;entryY=0.5;entryDx=0;entryDy=0;startArrow=classic;startFill=1;" edge="1" parent="1" source="UKZgeWSrZiBoHaI9SNrV-228" target="UKZgeWSrZiBoHaI9SNrV-241">
          <mxGeometry relative="1" as="geometry">
            <Array as="points">
              <mxPoint x="1400" y="620" />
              <mxPoint x="1400" y="360" />
            </Array>
          </mxGeometry>
        </mxCell>
        <mxCell id="UKZgeWSrZiBoHaI9SNrV-246" style="edgeStyle=orthogonalEdgeStyle;rounded=0;orthogonalLoop=1;jettySize=auto;html=1;entryX=0;entryY=0.5;entryDx=0;entryDy=0;startArrow=classic;startFill=1;" edge="1" parent="1" source="UKZgeWSrZiBoHaI9SNrV-220" target="UKZgeWSrZiBoHaI9SNrV-243">
          <mxGeometry relative="1" as="geometry">
            <Array as="points">
              <mxPoint x="420" y="620" />
              <mxPoint x="420" y="790" />
              <mxPoint x="1410" y="790" />
              <mxPoint x="1410" y="480" />
            </Array>
          </mxGeometry>
        </mxCell>
        <mxCell id="UKZgeWSrZiBoHaI9SNrV-247" style="edgeStyle=orthogonalEdgeStyle;rounded=0;orthogonalLoop=1;jettySize=auto;html=1;entryX=0;entryY=0.5;entryDx=0;entryDy=0;startArrow=classic;startFill=1;" edge="1" parent="1" source="UKZgeWSrZiBoHaI9SNrV-248" target="UKZgeWSrZiBoHaI9SNrV-215">
          <mxGeometry relative="1" as="geometry" />
        </mxCell>
        <mxCell id="UKZgeWSrZiBoHaI9SNrV-248" value="User" style="shape=umlActor;verticalLabelPosition=bottom;verticalAlign=top;html=1;outlineConnect=0;" vertex="1" parent="1">
          <mxGeometry x="190" y="542.75" width="30" height="60" as="geometry" />
        </mxCell>
        <mxCell id="UKZgeWSrZiBoHaI9SNrV-249" style="edgeStyle=orthogonalEdgeStyle;rounded=0;orthogonalLoop=1;jettySize=auto;html=1;entryX=0;entryY=0.5;entryDx=0;entryDy=0;startArrow=classic;startFill=1;" edge="1" parent="1" source="UKZgeWSrZiBoHaI9SNrV-229" target="UKZgeWSrZiBoHaI9SNrV-233">
          <mxGeometry relative="1" as="geometry">
            <Array as="points">
              <mxPoint x="1160" y="510" />
              <mxPoint x="1160" y="464" />
            </Array>
          </mxGeometry>
        </mxCell>
        <mxCell id="UKZgeWSrZiBoHaI9SNrV-250" style="edgeStyle=orthogonalEdgeStyle;rounded=0;orthogonalLoop=1;jettySize=auto;html=1;entryX=0;entryY=0.5;entryDx=0;entryDy=0;startArrow=classic;startFill=1;dashed=1;" edge="1" parent="1" source="UKZgeWSrZiBoHaI9SNrV-217" target="UKZgeWSrZiBoHaI9SNrV-233">
          <mxGeometry relative="1" as="geometry">
            <Array as="points">
              <mxPoint x="770" y="510" />
              <mxPoint x="770" y="470" />
              <mxPoint x="1160" y="470" />
              <mxPoint x="1160" y="464" />
            </Array>
          </mxGeometry>
        </mxCell>
      </root>
    </mxGraphModel>
  </diagram>
</mxfile>
